<?xml version="1.0" standalone="no"?>
<!DOCTYPE svg PUBLIC "-//W3C//DTD SVG 1.1//EN" "http://www.w3.org/Graphics/SVG/1.1/DTD/svg11.dtd" >
<svg xmlns="http://www.w3.org/2000/svg">
  <metadata>Created by iconfont</metadata>
  <defs>
  <font id="iconfont" horiz-adv-x="1024">
    <font-face
      font-family="iconfont"
      font-weight="400"
      font-stretch="normal"
      units-per-em="1024"
      ascent="896"
      descent="-128"
    />
      <missing-glyph />
      
      <glyph glyph-name="add-team" unicode="&#59122;" d="M714.4 333.6c-24-24-56-37.6-90.4-37.6-34.4 0-66.4 13.6-90.4 37.6-24.8 24.8-37.6 56.8-37.6 92 0 32.8 13.6 64.8 36 88 24 24.8 56 38.4 90.4 38.4 33.6 0 67.2-12.8 91.2-36.8 24.8-24 38.4-56.8 38.4-91.2 0-34.4-13.6-66.4-37.6-90.4zM824 424c0 109.6-88 198.4-196.8 200C516 625.6 424 534.4 424 424c0-62.4 28.8-118.4 74.4-155.2-32-14.4-60.8-35.2-86.4-60.8-55.2-54.4-85.6-127.2-88-204 0-4.8 3.2-8 8-8h56c4 0 8 3.2 8 8 1.6 57.6 25.6 112 66.4 153.6C505.6 200 563.2 224 624 224c110.4 0 200 89.6 200 200z m-450.4-26.4c-0.8 8.8-1.6 17.6-1.6 26.4 0 16 1.6 31.2 4 46.4 0.8 4-0.8 7.2-4.8 8.8-13.6 6.4-26.4 14.4-36.8 24.8-25.6 24.8-40 59.2-38.4 95.2 0.8 32 13.6 62.4 36 85.6 24.8 25.6 57.6 39.2 92.8 38.4 32 0 62.4-12.8 86.4-34.4 8-7.2 14.4-15.2 20-24 2.4-3.2 5.6-4.8 9.6-3.2 17.6 6.4 36 10.4 55.2 12 5.6 0.8 8.8 6.4 6.4 12-32.8 64-99.2 108.8-176 109.6C316.8 797.6 224 706.4 224 596c0-62.4 28.8-118.4 74.4-155.2-32-14.4-60.8-35.2-86.4-60.8-55.2-54.4-85.6-127.2-88-204 0-4.8 3.2-8 8-8h56c4 0 8 3.2 8 8 1.6 57.6 25.6 112 66.4 153.6 29.6 29.6 65.6 49.6 104.8 60 4 0 6.4 4 6.4 8z m518.4-273.6h-80v80c0 4.8-4 8-8 8h-48c-4.8 0-8-3.2-8-8v-80h-80c-4.8 0-8-3.2-8-8v-48c0-4 3.2-8 8-8h80v-80c0-4.8 3.2-8 8-8h48c4 0 8 3.2 8 8v80h80c4 0 8 4 8 8v48c0 4-4 8-8 8z"  horiz-adv-x="1024" />
      
      <glyph glyph-name="delete-team" unicode="&#59123;" d="M716.8 321.6c-24-24-56-37.6-90.4-37.6-34.4 0-66.4 13.6-90.4 37.6-24.8 24.8-37.6 56.8-37.6 92 0 32.8 13.6 64.8 36 88 24 24.8 56 38.4 90.4 38.4 33.6 0 67.2-12.8 91.2-36.8 24.8-24 38.4-56.8 38.4-91.2 0-34.4-13.6-66.4-37.6-90.4z m109.6 90.4c0 109.6-88 198.4-196.8 200-111.2 1.6-203.2-88.8-203.2-200 0-62.4 28.8-118.4 74.4-155.2-32-14.4-60.8-35.2-86.4-60.8-55.2-54.4-85.6-127.2-88-204 0-4.8 3.2-8 8-8h56c4 0 8 3.2 8 8 1.6 57.6 25.6 112 66.4 153.6 43.2 43.2 100 66.4 161.6 66.4 110.4 0 200 89.6 200 200z m-451.2-26.4c-0.8 8.8-1.6 17.6-1.6 26.4 0 16 1.6 31.2 4 46.4 0.8 4-1.6 7.2-4.8 8.8-13.6 6.4-26.4 14.4-36.8 24.8-25.6 24.8-40 59.2-38.4 95.2 0.8 32 13.6 62.4 36 85.6 24.8 25.6 57.6 39.2 92.8 38.4 32 0 62.4-12.8 86.4-34.4 8-7.2 14.4-15.2 20-24 2.4-3.2 5.6-4.8 9.6-3.2 17.6 6.4 36 10.4 55.2 12 5.6 0.8 8.8 6.4 6.4 12-32.8 64-99.2 108.8-176 109.6-111.2 1.6-203.2-88.8-203.2-200 0-62.4 28.8-118.4 74.4-155.2-32-14.4-60.8-35.2-86.4-60.8-55.2-54.4-85.6-127.2-88-204 0-4.8 3.2-8 8-8h56c4 0 8 3.2 8 8 1.6 57.6 25.6 112 66.4 153.6 29.6 29.6 65.6 49.6 104.8 60 5.6 0.8 8 4.8 7.2 8.8zM890.4 112h-224c-4 0-8-3.2-8-8v-48c0-4 4-8 8-8h224c4.8 0 8 4 8 8v48c0 4-4 8-8 8z"  horiz-adv-x="1024" />
      
      <glyph glyph-name="fullscreen" unicode="&#59194;" d="M381.6 296c-3.2 3.2-8 3.2-11.2 0L236 162.4 192 206.4c-4.8 4.8-12.8 1.6-13.6-4.8l-19.2-160c-0.8-4.8 4-9.6 8.8-8.8l160 19.2c6.4 0.8 9.6 8.8 4.8 13.6l-44 44L424 241.6c3.2 3.2 3.2 8 0 11.2L381.6 296z m463.2-95.2c-0.8 6.4-8.8 9.6-13.6 4.8l-44-44L653.6 296c-3.2 3.2-8 3.2-11.2 0L600 253.6c-3.2-3.2-3.2-8 0-11.2l133.6-133.6-44-44c-4.8-4.8-1.6-12.8 4.8-13.6l160-19.2c4.8-0.8 9.6 4 8.8 8.8l-18.4 160zM642.4 472c3.2-3.2 8-3.2 11.2 0l133.6 133.6 44-44c4.8-4.8 12.8-1.6 13.6 4.8l19.2 160c0.8 4.8-4 9.6-8.8 8.8l-160-19.2c-6.4-0.8-9.6-8.8-4.8-13.6l44-44L600 525.6c-3.2-3.2-3.2-8 0-11.2l42.4-42.4zM289.6 659.2l44 44c4.8 4.8 1.6 12.8-4.8 13.6l-160 19.2c-4.8 0.8-9.6-4-8.8-8.8l19.2-160c0.8-6.4 8.8-9.6 13.6-4.8l44 44L369.6 472c3.2-3.2 8-3.2 11.2 0l42.4 42.4c3.2 3.2 3.2 8 0 11.2L289.6 659.2z"  horiz-adv-x="1024" />
      
      <glyph glyph-name="fullscreen-exit" unicode="&#59195;" d="M744 205.6l44 44c4.8 4.8 1.6 12.8-4.8 13.6l-160 19.2c-4.8 0.8-9.6-4-8.8-8.8l19.2-160c0.8-6.4 8.8-9.6 13.6-4.8l44 44 133.6-133.6c3.2-3.2 8-3.2 11.2 0l42.4 42.4c3.2 3.2 3.2 8 0 11.2L744 205.6zM623.2 486.4l160 19.2c6.4 0.8 9.6 8.8 4.8 13.6L744 562.4 877.6 696c3.2 3.2 3.2 8 0 11.2l-42.4 42.4c-3.2 3.2-8 3.2-11.2 0L690.4 616l-44 44c-4.8 4.8-12.8 1.6-13.6-4.8l-19.2-160c0-5.6 4-9.6 9.6-8.8zM400.8 281.6l-160-19.2c-6.4-0.8-9.6-8.8-4.8-13.6l44-44L146.4 72c-3.2-3.2-3.2-8 0-11.2l42.4-42.4c3.2-3.2 8-3.2 11.2 0L333.6 152l44-44c4.8-4.8 12.8-1.6 13.6 4.8l19.2 160c0 5.6-4 9.6-9.6 8.8z m-9.6 373.6c-0.8 6.4-8.8 9.6-13.6 4.8L333.6 616 200 749.6c-3.2 3.2-8 3.2-11.2 0l-42.4-42.4c-3.2-3.2-3.2-8 0-11.2L280 562.4l-44-44c-4.8-4.8-1.6-12.8 4.8-13.6l160-19.2c4.8-0.8 9.6 4 8.8 8.8l-18.4 160.8z"  horiz-adv-x="1024" />
      
      <glyph glyph-name="check-circle" unicode="&#59328;" d="M699.2 543.2c6.4 0 10.4-7.2 6.4-12.8L494.4 238.4c-12.8-17.6-39.2-17.6-52 0L318.4 411.2a8 8 0 0 0 6.4 12.8h47.2c10.4 0 20-4.8 25.6-13.6L468.8 312l157.6 217.6c5.6 8.8 16 13.6 25.6 13.6h47.2zM512 756c-205.6 0-372-166.4-372-372s166.4-372 372-372 372 166.4 372 372S717.6 756 512 756zM512 832c247.2 0 448-200.8 448-448s-200.8-448-448-448S64 136.8 64 384 264.8 832 512 832z"  horiz-adv-x="1024" />
      
      <glyph glyph-name="minus-circle1" unicode="&#59333;" d="M696 416c4.8 0 8-3.2 8-8v-48c0-4-3.2-8-8-8H328c-4 0-8 4-8 8v48c0 4.8 4 8 8 8h368zM512 756c-205.6 0-372-166.4-372-372s166.4-372 372-372 372 166.4 372 372S717.6 756 512 756zM512 832c247.2 0 448-200.8 448-448s-200.8-448-448-448S64 136.8 64 384 264.8 832 512 832z"  horiz-adv-x="1024" />
      
      <glyph glyph-name="close-circle" unicode="&#59334;" d="M677.6 550.4c4 0 8-4 8-8 0-1.6-0.8-4-1.6-5.6L553.6 381.6l129.6-155.2c1.6-1.6 1.6-3.2 1.6-5.6 0-4.8-4-8-8-8h-66.4L512 332.8 412.8 214.4h-66.4c-4 0-8 4-8 8 0 1.6 0.8 4 1.6 4.8l130.4 155.2-129.6 154.4c-1.6 1.6-1.6 3.2-1.6 4.8 0 4.8 4 8 8 8h66.4L512 431.2l99.2 118.4 66.4 0.8zM512 756c-205.6 0-372-166.4-372-372s166.4-372 372-372 372 166.4 372 372S717.6 756 512 756zM512 832c247.2 0 448-200.8 448-448s-200.8-448-448-448S64 136.8 64 384 264.8 832 512 832z"  horiz-adv-x="1024" />
      
      <glyph glyph-name="smile1" unicode="&#59336;" d="M664 363.2h-48c-4 0-8-3.2-8-7.2-4-49.6-45.6-88.8-96-88.8s-92 39.2-96 88.8c0 4-4 7.2-8 7.2h-48c-4.8 0-8-4-8-8.8 4.8-84 74.4-151.2 160-151.2s156 67.2 160 151.2c0 4.8-3.2 8.8-8 8.8z m111.2-242.4c-34.4-34.4-74.4-60.8-118.4-80-45.6-19.2-94.4-29.6-144.8-29.6s-99.2 9.6-144.8 29.6c-44 18.4-84 45.6-118.4 80-34.4 34.4-60.8 73.6-80 118.4-19.2 45.6-28.8 94.4-28.8 144.8s9.6 99.2 28.8 144.8c18.4 44 45.6 84 80 118.4s74.4 60.8 118.4 80c45.6 19.2 94.4 28.8 144.8 28.8s99.2-9.6 144.8-29.6c44-18.4 84-45.6 118.4-80 34.4-34.4 60.8-74.4 80-118.4 19.2-45.6 28.8-94.4 28.8-144.8s-9.6-99.2-29.6-144.8c-18.4-43.2-45.6-83.2-79.2-117.6zM512 832C264.8 832 64 631.2 64 384s200.8-448 448-448 448 200.8 448 448S759.2 832 512 832z m128-356.8c0-26.4 21.6-48 48-48s48 21.6 48 48-21.6 48-48 48-48-21.6-48-48z m-352 0c0-26.4 21.6-48 48-48s48 21.6 48 48-21.6 48-48 48-48-21.6-48-48z"  horiz-adv-x="1024" />
      
      <glyph glyph-name="meh" unicode="&#59337;" d="M664 331.2H360c-4 0-8-4-8-8v-48c0-4.8 4-8 8-8h304c4.8 0 8 3.2 8 8v48c0 4-3.2 8-8 8z m111.2-210.4c-34.4-34.4-74.4-60.8-118.4-80-45.6-19.2-94.4-29.6-144.8-29.6s-99.2 9.6-144.8 29.6c-44 18.4-84 45.6-118.4 80-34.4 34.4-60.8 73.6-80 118.4-19.2 45.6-28.8 94.4-28.8 144.8s9.6 99.2 28.8 144.8c18.4 44 45.6 84 80 118.4s74.4 60.8 118.4 80c45.6 19.2 94.4 28.8 144.8 28.8s99.2-9.6 144.8-29.6c44-18.4 84-45.6 118.4-80 34.4-34.4 60.8-74.4 80-118.4 19.2-45.6 28.8-94.4 28.8-144.8s-9.6-99.2-29.6-144.8c-18.4-43.2-45.6-83.2-79.2-117.6zM512 832C264.8 832 64 631.2 64 384s200.8-448 448-448 448 200.8 448 448S759.2 832 512 832z m128-356.8c0-26.4 21.6-48 48-48s48 21.6 48 48-21.6 48-48 48-48-21.6-48-48z m-352 0c0-26.4 21.6-48 48-48s48 21.6 48 48-21.6 48-48 48-48-21.6-48-48z"  horiz-adv-x="1024" />
      
      <glyph glyph-name="frown" unicode="&#59338;" d="M512 363.2c-85.6 0-155.2-67.2-160-152 0-4.8 3.2-8 8-8h48c4 0 8 3.2 8 7.2 4 49.6 45.6 88.8 96 88.8s92-39.2 96-88.8c0-4 4-7.2 8-7.2h48c4.8 0 8 4 8 8-4 84.8-74.4 152-160 152z m263.2-242.4c-34.4-34.4-74.4-60.8-118.4-80-45.6-19.2-94.4-29.6-144.8-29.6s-99.2 9.6-144.8 29.6c-44 18.4-84 45.6-118.4 80-34.4 34.4-60.8 73.6-80 118.4-19.2 45.6-28.8 94.4-28.8 144.8s9.6 99.2 28.8 144.8c18.4 44 45.6 84 80 118.4s74.4 60.8 118.4 80c45.6 19.2 94.4 28.8 144.8 28.8s99.2-9.6 144.8-29.6c44-18.4 84-45.6 118.4-80 34.4-34.4 60.8-74.4 80-118.4 19.2-45.6 28.8-94.4 28.8-144.8s-9.6-99.2-29.6-144.8c-18.4-43.2-45.6-83.2-79.2-117.6zM512 832C264.8 832 64 631.2 64 384s200.8-448 448-448 448 200.8 448 448S759.2 832 512 832z m128-356.8c0-26.4 21.6-48 48-48s48 21.6 48 48-21.6 48-48 48-48-21.6-48-48z m-352 0c0-26.4 21.6-48 48-48s48 21.6 48 48-21.6 48-48 48-48-21.6-48-48z"  horiz-adv-x="1024" />
      
      <glyph glyph-name="poweroff-circle" unicode="&#59339;" d="M648 544h-48c-4 0-8-3.2-8-8v-304c0-4.8 4-8 8-8h48c4 0 8 3.2 8 8V536c0 4.8-4 8-8 8z m-224 0h-48c-4 0-8-3.2-8-8v-304c0-4.8 4-8 8-8h48c4 0 8 3.2 8 8V536c0 4.8-4 8-8 8z m88-532c-205.6 0-372 166.4-372 372S306.4 756 512 756s372-166.4 372-372-166.4-372-372-372zM512 832C264.8 832 64 631.2 64 384s200.8-448 448-448 448 200.8 448 448S759.2 832 512 832z"  horiz-adv-x="1024" />
      
      <glyph glyph-name="play-circle" unicode="&#59340;" d="M461.6 263.2V504.8L628.8 384 461.6 263.2z m257.6 133.6l-296 215.2c-10.4 8-25.6 0-25.6-12.8v-430.4c0-12.8 14.4-20.8 25.6-12.8l296 215.2c8.8 6.4 8.8 19.2 0 25.6zM512 12c-205.6 0-372 166.4-372 372S306.4 756 512 756s372-166.4 372-372-166.4-372-372-372zM512 832C264.8 832 64 631.2 64 384s200.8-448 448-448 448 200.8 448 448S759.2 832 512 832z"  horiz-adv-x="1024" />
      
      <glyph glyph-name="YUAN-circle" unicode="&#59347;" d="M671.2 596.8h-59.2c-3.2 0-5.6-1.6-7.2-4L514.4 412.8h-3.2L420 592.8c-1.6 2.4-4 4-7.2 4H352c-1.6 0-2.4 0-4-0.8-4-2.4-5.6-7.2-3.2-11.2L456 380h-61.6c-4.8 0-8-3.2-8-8v-29.6c0-4.8 3.2-8 8-8h81.6v-41.6h-80c-4.8 0-8-3.2-8-8v-29.6c0-4.8 3.2-8 8-8h81.6v-68c0-4.8 3.2-8 8-8h54.4c4 0 8 3.2 8 8v68h81.6c4 0 8 3.2 8 8v29.6c0 4.8-4 8-8 8H548v41.6h81.6c4 0 8 4 8 8v29.6c0 4-4 8-8 8h-62.4l111.2 204.8c0.8 1.6 0.8 2.4 0.8 4 0 4.8-3.2 8-8 8zM512 12c-205.6 0-372 166.4-372 372S306.4 756 512 756s372-166.4 372-372-166.4-372-372-372zM512 832C264.8 832 64 631.2 64 384s200.8-448 448-448 448 200.8 448 448S759.2 832 512 832z"  horiz-adv-x="1024" />
      
      <glyph glyph-name="user" unicode="&#59370;" d="M512 361.6c-45.6 0-88.8 17.6-121.6 50.4s-50.4 76-50.4 121.6c0 45.6 17.6 88.8 50.4 121.6s76 50.4 121.6 50.4 88.8-17.6 121.6-50.4 50.4-76 50.4-121.6c0-45.6-17.6-88.8-50.4-121.6-32.8-32-76-50.4-121.6-50.4z m346.4-229.6c-19.2 44.8-46.4 84.8-80.8 119.2-34.4 34.4-74.4 61.6-119.2 80.8-0.8 0-0.8 0-1.6 0.8C719.2 377.6 760 451.2 760 534.4c0 136.8-111.2 248-248 248s-248-111.2-248-248c0-82.4 40.8-156 102.4-200.8 0 0-0.8 0-0.8-0.8-44.8-19.2-84.8-45.6-119.2-80.8-34.4-34.4-61.6-74.4-80.8-119.2-18.4-44-28.8-90.4-29.6-138.4 0-4.8 3.2-8 8-8h60c4 0 8 3.2 8 8 1.6 77.6 32.8 149.6 88 204 56.8 56.8 132 88 212 88s155.2-31.2 212-88c55.2-55.2 85.6-127.2 88-204 0-4.8 3.2-8 8-8h60c4.8 0 8 4 8 8-0.8 47.2-11.2 94.4-29.6 137.6z"  horiz-adv-x="1024" />
      
      <glyph glyph-name="wechat-line" unicode="&#59029;" d="M500.8384 525.9264a35.2256 35.2256 0 0 1 37.2736 37.2736 35.1232 35.1232 0 0 1-37.2736 37.2736c-22.4256 0-44.9536-14.6432-44.9536-37.2736s22.528-37.2736 44.9536-37.2736z m-208.896 74.5472c-22.4256 0-45.056-14.6432-45.056-37.2736s22.6304-37.2736 45.056-37.2736a35.2256 35.2256 0 0 1 37.1712 37.2736 35.0208 35.0208 0 0 1-37.1712 37.2736z m655.36-313.4464c0 118.0672-109.4656 218.624-243.9168 229.0688a11.0592 11.0592 0 0 1 0 4.5056C675.84 646.3488 541.0816 741.0688 389.12 741.0688c-172.3392 0-312.32-120.0128-312.32-267.4688 0-79.1552 40.3456-150.4256 116.9408-206.6432l-26.7264-80.1792A13.5168 13.5168 0 0 1 180.0192 168.96a13.824 13.824 0 0 1 6.0416 1.4336L286.72 220.16l12.3904-2.4576A422.6048 422.6048 0 0 1 389.12 206.0288a123.5968 123.5968 0 0 1 38.5024 6.4512C463.4624 122.0608 563.2 56.32 680.1408 56.32A365.568 365.568 0 0 1 768 70.8608l77.2096-42.1888a13.6192 13.6192 0 0 1 6.5536-1.7408 13.1072 13.1072 0 0 1 8.4992 3.072 13.6192 13.6192 0 0 1 4.5056 14.4384l-19.968 65.6384c66.1504 52.224 102.4 114.688 102.4 176.9472z m-532.48-44.544c-8.6016-0.7168-17.2032-1.1264-25.8048-1.1264a388.096 388.096 0 0 0-81.92 10.8544l-16.4864 3.3792a12.4928 12.4928 0 0 1-8.3968-1.1264l-72.3968-36.2496 18.8416 56.5248a13.1072 13.1072 0 0 1-4.9152 14.848c-72.8064 51.2-109.6704 112.64-109.6704 183.6032 0 127.7952 122.88 231.7312 274.8416 231.7312 133.9392 0 252.5184-81.92 276.992-189.8496-140.3904-1.8432-254.0544-100.352-254.0544-221.9008a193.7408 193.7408 0 0 1 7.168-51.2 11.8784 11.8784 0 0 1-4.3008 0z m399.36-108.9536a13.0048 13.0048 0 0 1-5.2224-14.0288l12.288-40.96-50.176 27.5456a13.4144 13.4144 0 0 1-6.2464 1.536 11.264 11.264 0 0 1-3.1744 0 344.6784 344.6784 0 0 0-81.92-13.824c-125.952 0-228.4544 86.6304-228.4544 193.024s102.4 193.024 228.4544 193.024c123.5968 0 228.0448-88.3712 228.0448-193.024 0-53.0432-33.3824-107.4176-94.208-153.088zM597.8112 384a29.9008 29.9008 0 0 1 0-59.8016c22.4256 0 37.2736 14.7456 37.2736 29.7984S620.2368 384 597.8112 384z m163.84 0a29.9008 29.9008 0 0 1 0-59.8016c22.3232 0 37.376 14.7456 37.376 29.7984S784.2816 384 761.9584 384z m0 0"  horiz-adv-x="1024" />
      
      <glyph glyph-name="wechat1" unicode="&#59038;" d="M972.8 278.016c0 129.024-124.416 230.4-276.48 230.4s-276.48-101.376-276.48-230.4 124.416-230.4 276.48-230.4a507.8016 507.8016 0 0 1 82.944 9.216l87.552-46.08-23.04 69.12C922.112 125.952 972.8 195.072 972.8 278.016z m-373.248 36.864a46.08 46.08 0 1 0 46.08 46.08 49.5616 49.5616 0 0 0-46.08-46.08z m188.928 0a46.08 46.08 0 1 0 46.08 46.08 49.5616 49.5616 0 0 0-46.08-46.08z m0 0M373.76 287.232c0 143.36 138.24 258.048 313.344 258.048h13.824c-36.864 119.808-161.28 211.968-317.952 211.968-184.32 0-331.776-124.416-331.776-276.48 0-96.768 59.904-184.32 152.064-230.4l-27.648-82.944 105.984 51.2a359.3216 359.3216 0 0 1 101.376-13.824h9.216a180.736 180.736 0 0 0-18.432 82.944zM498.176 660.48a59.904 59.904 0 0 0 0-119.808 68.8128 68.8128 0 0 0-59.904 64.512 57.1392 57.1392 0 0 0 59.904 55.296z m-225.28-115.2a57.1392 57.1392 0 0 0-55.296 59.904 61.44 61.44 0 0 0 59.904 59.904 57.1392 57.1392 0 0 0 55.296-59.904 61.44 61.44 0 0 0-59.904-59.904z m0 0"  horiz-adv-x="1024" />
      
      <glyph glyph-name="QQ" unicode="&#59549;" d="M511.098-61.257c-80.16 0-153.737 25.019-201.11 62.386-24.057-6.702-54.831-17.489-74.252-30.864-16.617-11.439-14.546-23.106-11.55-27.816 13.15-20.689 225.583-13.211 286.912-6.767v3.061zM496.65-61.257c80.158 0 153.738 25.019 201.11 62.386 24.058-6.702 54.83-17.489 74.254-30.864 16.616-11.439 14.543-23.106 11.55-27.816-13.15-20.689-225.584-13.211-286.914-6.767v3.061zM497.129 421.476c131.934 0.876 237.669 25.783 273.497 35.34 8.54 2.28 13.11 6.364 13.11 6.364 0.03 1.172 0.542 20.952 0.542 31.155 0 171.832-83.152 344.492-287.637 344.503C292.157 838.827 209 666.168 209 494.335c0-10.203 0.516-29.983 0.547-31.155 0 0 3.717-3.821 10.529-5.67 33.078-8.98 140.803-35.139 276.08-36.034h0.972zM860.283 276.218c-8.12 26.086-19.204 56.506-30.427 85.72 0 0-6.456 0.795-9.718-0.148-100.71-29.205-222.773-47.818-315.792-46.695h-0.962c-92.498-1.112-213.733 17.288-314.104 46.207-3.835 1.103-11.407 0.635-11.407 0.635-11.223-29.213-22.306-59.633-30.425-85.719-38.718-124.386-26.175-175.862-16.623-177.016 20.496-2.474 79.78 93.637 79.78 93.637 0-97.66 88.324-247.617 290.576-248.996a718.01 718.01 0 0 0 5.367 0c202.254 1.379 290.575 151.335 290.575 248.995 0 0 59.284-96.111 79.783-93.637 9.55 1.154 22.093 52.63-16.623 177.017M434.383 579.083c-27.9-1.24-51.745 30.106-53.24 69.956-1.518 39.877 19.858 73.207 47.764 74.454 27.875 1.224 51.703-30.109 53.218-69.974 1.527-39.877-19.853-73.2-47.742-74.436m206.67 69.956c-1.494-39.85-25.34-71.194-53.24-69.956-27.888 1.238-49.27 34.559-47.742 74.435 1.513 39.868 25.34 71.201 53.216 69.974 27.909-1.247 49.285-34.576 47.767-74.453M683.943 527.373C676.62 544.982 602.88 564.6 511.59 564.6h-0.98c-91.29 0-165.031-19.618-172.352-37.227a6.244 6.244 0 0 1-0.535-2.505c0-1.269 0.393-2.414 1.006-3.386 6.168-9.765 88.054-58.018 171.882-58.018h0.98c83.827 0 165.71 48.25 171.88 58.016a6.352 6.352 0 0 1 1.003 3.395c0 0.897-0.2 1.736-0.531 2.498M467.632 639.623c1.26-15.886-7.377-30-19.266-31.542-11.907-1.544-22.57 10.083-23.836 25.978-1.243 15.895 7.38 30.008 19.25 31.538 11.927 1.549 22.607-10.088 23.852-25.974m73.097-7.935c2.533 4.118 19.827 25.77 55.62 17.886 9.4-2.07 13.75-5.116 14.668-6.316 1.355-1.77 1.726-4.29 0.352-7.684-2.722-6.725-8.338-6.542-11.454-5.226-2.01 0.85-26.94 15.889-49.905-6.553-1.58-1.545-4.405-2.074-7.085-0.242-2.678 1.834-3.786 5.553-2.196 8.135M504.333 311.505h-0.967c-63.568-0.752-140.646 7.504-215.286 21.92-6.391-36.262-10.25-81.838-6.936-136.196 8.37-137.384 91.62-223.736 220.118-224.996h5.223c128.498 1.26 211.748 87.612 220.12 224.996 3.314 54.362-0.547 99.938-6.94 136.203-74.654-14.423-151.745-22.684-215.332-21.927M323.275 318.984v-137.468s64.957-12.705 130.03-3.91V304.41c-41.224 2.262-85.687 7.304-130.03 14.574M788.098 463.464s-121.98-40.387-283.743-41.539h-0.962c-161.497 1.147-283.328 41.401-283.744 41.539l-40.854-106.952c102.186-32.31 228.837-53.135 324.598-51.926l0.96 0.002c95.768-1.216 222.4 19.61 324.6 51.924l-40.855 106.952z"  horiz-adv-x="1024" />
      
      <glyph glyph-name="weixin" unicode="&#59550;" d="M337.387 554.173c-17.757 0-35.514-11.838-35.514-29.595s17.757-29.595 35.514-29.595 29.596 11.838 29.596 29.595c0 18.497-11.838 29.595-29.596 29.595zM577.85 382.52c-11.838 0-22.937-12.578-22.937-23.676 0-12.578 11.838-23.676 22.937-23.676 17.757 0 29.595 11.838 29.595 23.676s-11.838 23.676-29.595 23.676z m-76.208 112.463c17.757 0 29.595 12.578 29.595 29.595 0 17.757-11.838 29.595-29.595 29.595s-35.515-11.838-35.515-29.595 17.757-29.595 35.515-29.595zM706.59 382.52c-11.839 0-22.937-12.578-22.937-23.676 0-12.578 11.838-23.676 22.937-23.676 17.757 0 29.595 11.838 29.595 23.676s-11.838 23.676-29.595 23.676zM510.52 893.04C228.624 893.04 0 664.416 0 382.52S228.624-128 510.52-128s510.52 228.624 510.52 510.52S792.416 893.04 510.52 893.04z m-96.925-641.48c-29.595 0-53.271 5.92-81.387 12.579l-81.387-41.434 22.936 71.769c-58.45 41.434-93.965 95.445-93.965 159.815 0 113.202 105.803 201.988 233.803 201.988 114.682 0 216.047-71.028 236.023-166.474-7.398 0.74-14.797 1.48-22.196 1.48-110.983-1.48-198.29-85.086-198.29-188.67 0-17.018 2.96-33.295 7.4-49.573-7.4-0.74-15.538-1.48-22.937-1.48z m346.266-82.866l17.757-59.191-63.63 35.514c-22.936-5.919-46.612-11.838-70.289-11.838-111.722 0-199.768 76.948-199.768 172.393-0.74 94.705 87.306 171.653 198.289 171.653 105.803 0 199.029-77.687 199.029-172.393 0-53.271-34.775-100.624-81.388-136.138z"  horiz-adv-x="1024" />
      
      <glyph glyph-name="no-data-3" unicode="&#58921;" d="M698.843 470.428c0-13.699-11.114-24.826-24.826-24.826-13.73 0-24.844 11.12-24.844 24.826 0 13.73 11.114 24.844 24.844 24.844 13.712-0 24.826-11.114 24.826-24.844zM351.157 633.756h-147.312c-1.861 0-7.524 0-9.154 4.009-1.586 3.89 2.173 7.574 3.409 8.785l156.066 151.383c4.19 4.096 8.779 4.652 11.62 1.792 1.68-1.692 2.516-4.327 2.479-7.824l-1.386-143.86c-0.069-8.279-6.681-14.286-15.722-14.286zM200.904 640.268c0.549-0.137 1.467-0.268 2.941-0.268h147.312c4.533 0 9.435 2.535 9.484 8.105l1.386 143.86c0.019 2.285-0.506 3.228-0.687 3.378 0.031-0.037-0.955-0.062-2.816-1.886l-156.066-151.383c-0.818-0.799-1.286-1.399-1.555-1.804zM805.832-34.448h-589.762c-12.55 0-22.765 10.215-22.765 22.765v647.98h6.244v-647.973c0-9.11 7.412-16.521 16.521-16.521h589.762c9.11 0 16.521 7.418 16.521 16.521v791.521c0 9.11-7.412 16.521-16.521 16.521h-446.208v6.244h446.202c12.55 0 22.765-10.215 22.765-22.765v-791.521c0.006-12.556-10.209-22.772-22.759-22.772zM265.172 265.366h491.901l-112.865 152.976-100.34-118.147-134.893 200.354zM901.932-128h-9.054v6.244h9.054c5.332 0 9.678 6.244 9.678 12.488h6.244c-0-12.488-7.143-18.732-15.922-18.732zM861.659-128h-31.22v6.244h31.22v-6.244zM799.22-128h-31.22v6.244h31.22v-6.244zM736.78-128h-31.22v6.244h31.22v-6.244zM674.341-128h-31.22v6.244h31.22v-6.244zM611.902-128h-31.22v6.244h31.22v-6.244zM549.463-128h-31.22v6.244h31.22v-6.244zM487.024-128h-31.22v6.244h31.22v-6.244zM424.585-128h-31.22v6.244h31.22v-6.244zM362.146-128h-31.22v6.244h31.22v-6.244zM299.707-128h-31.22v6.244h31.22v-6.244zM237.268-128h-31.22v6.244h31.22v-6.244zM174.829-128h-31.22v6.244h31.22v-6.244zM112.609-114.725c-0.144 0.862-0.219 1.742-0.219 2.654v27.779h6.244v-27.779c0-0.556 0.044-1.099 0.131-1.63l-6.156-1.024zM917.854-90.537h-6.244v31.22h6.244v-31.22zM118.634-53.073h-6.244v31.22h6.244v-31.22zM917.854-28.098h-6.244v31.22h6.244v-31.22zM118.634 9.366h-6.244v31.22h6.244v-31.22zM917.854 34.341h-6.244v31.22h6.244v-31.22zM118.634 71.805h-6.244v31.22h6.244v-31.22zM917.854 96.78h-6.244v31.22h6.244v-31.22zM118.634 134.244h-6.244v31.22h6.244v-31.22zM917.854 159.22h-6.244v31.22h6.244v-31.22zM118.634 196.683h-6.244v31.22h6.244v-31.22zM917.854 221.659h-6.244v31.22h6.244v-31.22zM118.634 259.122h-6.244v31.22h6.244v-31.22zM917.854 284.098h-6.244v31.22h6.244v-31.22zM118.634 321.561h-6.244v31.22h6.244v-31.22zM917.854 346.537h-6.244v31.22h6.244v-31.22zM118.634 384h-6.244v31.22h6.244v-31.22zM917.854 408.976h-6.244v31.22h6.244v-31.22zM118.634 446.439h-6.244v31.22h6.244v-31.22zM917.854 471.415h-6.244v31.22h6.244v-31.22zM118.634 508.878h-6.244v31.22h6.244v-31.22zM917.854 533.854h-6.244v31.22h6.244v-31.22zM118.634 571.317h-6.244v31.22h6.244v-31.22zM917.854 596.293h-6.244v31.22h6.244v-31.22zM118.634 633.756h-6.244v31.22h6.244v-31.22zM917.854 658.732h-6.244v31.22h6.244v-31.22zM118.634 696.195h-6.244v31.22h6.244v-31.22zM917.854 721.171h-6.244v31.22h6.244v-31.22zM118.634 758.634h-6.244v31.22h6.244v-31.22zM917.854 783.61h-6.244v31.22h6.244v-31.22zM118.634 821.073h-6.244v31.22h6.244v-31.22zM917.854 846.049h-6.244l-0 31.22h6.244l0-31.22zM119.284 883.568l-5.826 2.254c2.36 6.088 8.329 10.178 14.854 10.178h15.298v-6.244h-15.298c-3.965 0-7.599-2.485-9.029-6.188zM892.878 889.756h-31.22v6.244h31.22v-6.244zM830.439 889.756h-31.22v6.244h31.22v-6.244zM768 889.756h-31.22v6.244h31.22v-6.244zM705.561 889.756h-31.22l-0 6.244h31.22l0-6.244zM643.122 889.756h-31.22v6.244h31.22v-6.244zM580.683 889.756h-31.22l0 6.244h31.22l-0-6.244zM518.244 889.756h-31.22l-0 6.244h31.22l0-6.244zM455.805 889.756h-31.22l0 6.244h31.22l-0-6.244zM393.366 889.756h-31.22l-0 6.244h31.22l0-6.244zM330.927 889.756h-31.22v6.244h31.22v-6.244zM268.488 889.756h-31.22l0 6.244h31.22v-6.244zM206.049 889.756h-31.22l0 6.244h31.22l-0-6.244z"  horiz-adv-x="1024" />
      
      <glyph glyph-name="wushuju" unicode="&#58895;" d="M748.2 520c-23.9 95.4-109.7 166.4-212.6 167-102.6 0.6-189.1-69.2-214.2-164-2.2 0.1-4.3 0.3-6.4 0.4-121.9 0.7-221.2-97.6-221.9-219.4-0.7-121.2 96.5-220 217.3-221.8v-0.1h391.3v0.5c2.7-0.1 5.3-0.4 8-0.4 121.9-0.7 221.2 97.6 221.9 219.5 0.6 109.4-78.8 200.5-183.4 218.3zM581.5 487.2c-16.6 14.8-38.2 22.2-64.9 22.2-30.3 0-54.2-8.9-71.8-26.7-17.6-17.8-26.4-42.1-26.4-72.8h0.2c0-0.3-0.2-0.5-0.2-0.8 0-10.1 8.1-18.2 18.2-18.2s18.2 8.1 18.2 18.2c0 0.3-0.2 0.5-0.2 0.8h0.2c0 46.2 20 69.4 60.1 69.4 15.4 0 28-4.4 38-13.4 10-8.9 15-20.3 15-34.2 0-16.2-9.3-32.7-27.8-49.3L526.2 370c-13.5-12.1-22.1-22.5-26-31.4-3.8-8.9-5.7-23.3-5.7-43.1l-0.2-3.4V291.5h0.1c0.2-9.3 7.8-16.7 17.1-16.7 9.5 0 17.2 7.7 17.2 17.2 0 0.4-0.2 0.8-0.2 1.2l0.2 5.9c0 20.4 9.7 38.5 29.1 54.3 32.5 26.6 48.7 52 48.7 76.3-0.1 23.5-8.4 42.7-25 57.5zM532.1 233.5v0.4c-0.2 10.6-8.8 19.1-19.4 19.1-10.6 0-19.2-8.5-19.4-19.1V212c0-10.8 8.7-19.5 19.5-19.5s19.5 8.7 19.5 19.5v21.3c-0.2 0.1-0.2 0.1-0.2 0.2z"  horiz-adv-x="1024" />
      
      <glyph glyph-name="wushuju1" unicode="&#59000;" d="M759.39456 158.4064c-15.488 0-30.94656 2.0672-45.94944 6.14016a23.05536 23.05536 0 0 1-24.02432-7.79904c-46.1568-57.4336-114.81728-90.3744-188.3648-90.3744-72.1536 0-139.97184 31.88736-186.07104 87.47648a23.0464 23.0464 0 0 1-17.7536 8.34048c-1.25568 0-2.52928-0.09728-3.80416-0.31104-9.72288-1.62944-19.50464-2.45376-29.056-2.45376-96.35456 0-174.7392 78.33088-174.7392 174.62016 0 91.97056 71.88224 168.49792 163.65568 174.22848a23.04512 23.04512 0 0 1 20.75648 16.74496C303.22688 628.51328 398.8096 700.79488 506.47424 700.79488c107.94624 0 203.58784-72.5184 232.59776-176.35328 2.75456-9.88416 11.72352-16.75008 21.98912-16.84864 95.43296-0.88704 173.06752-79.2064 173.06752-174.57408 0-96.27776-78.38336-174.61376-174.7328-174.61376m19.09504 394.44992C738.92736 667.89504 629.39648 746.87616 506.47424 746.87616c-122.8992 0-232.56832-79.0784-272.07552-194.19776C126.14144 537.97888 43.52128 444.87936 43.52128 334.04544 43.52 212.34816 142.592 113.34528 264.3712 113.34528c7.80928 0 15.712 0.43264 23.62624 1.28512 54.54976-60.11136 131.4688-94.33728 213.056-94.33728 82.68416 0 160.16384 34.94016 214.81728 96.3648a220.99072 220.99072 0 0 1 43.52256-4.33152c121.77536 0 220.8448 99.00288 220.8448 220.69376 0 114.82624-89.04064 210.09024-201.74848 219.83616M511.8848 235.91168c-14.624 0-26.48064-11.84768-26.48064-26.46144 0-14.61248 11.85664-26.45504 26.47936-26.45504 14.624 0 26.47936 11.84256 26.47936 26.45504 0 14.61376-11.85536 26.46144-26.47936 26.46144M511.8848 555.23328c-39.5584 0-75.81952-19.95776-97.01376-53.3952-11.60832-18.32192-17.7408-39.5136-17.7408-61.28 0-12.7232 10.3232-23.04 23.05536-23.04 12.73216 0 23.05536 10.3168 23.05536 23.04 0 13.02912 3.66592 25.69472 10.58816 36.6272 12.68736 20.02176 34.38848 31.968 58.0544 31.968 37.84576 0 68.64256-30.77504 68.64256-68.5952 0-37.82656-30.7968-68.5952-68.64256-68.5952-12.73216 0-23.05536-10.3168-23.05536-23.04v-67.19744c0-12.7232 10.3232-23.04 23.05536-23.04 12.73344 0 23.05664 10.3168 23.05664 23.04v46.4832c52.26112 10.69696 91.69792 57.00736 91.69792 112.34944 0 63.22688-51.47776 114.6752-114.75456 114.6752"  horiz-adv-x="1024" />
      
      <glyph glyph-name="nodata" unicode="&#58924;" d="M167.337 200.816h20.854c5.62-0.1 10.115-4.633 10.115-10.19 0-5.62-4.433-10.19-10.115-10.19h-20.854v-20.58a10.265 10.265 0 0 0-10.328-9.99 10.24 10.24 0 0 0-7.268 2.872 9.965 9.965 0 0 0-3.047 7.118V180.45H125.84a10.252 10.252 0 0 0-10.116 10.19c0 5.62 4.434 10.19 10.116 10.19h20.854v20.58a10.265 10.265 0 0 0 10.315 9.99c5.707 0 10.328-4.396 10.328-9.99v-20.593z m1362.669 81.52v20.58a9.965 9.965 0 0 1-3.047 7.119 10.24 10.24 0 0 1-7.28 2.872 10.265 10.265 0 0 1-10.315-9.99v-20.58h-20.855a10.228 10.228 0 0 1-7.218-2.997 9.953 9.953 0 0 1-2.897-7.193c0-5.457 4.533-10.19 10.115-10.19h20.855v-20.58c0-5.607 4.62-9.99 10.314-9.99 5.62 0 10.215 4.445 10.328 9.99v20.58h20.854c5.682 0 10.116 4.57 10.116 10.19a10.252 10.252 0 0 1-10.116 10.19h-20.854zM779.963-53.91h-519.78c-5.47 0-10.714 2.136-14.585 5.957a20.168 20.168 0 0 0-5.994 14.423c0 11.24 9.353 20.368 20.58 20.368h93.633a80.172 80.172 0 0 0-10.99 40.66V618.683c0.013 21.63 8.742 42.359 24.24 57.632a83.081 83.081 0 0 0 58.442 23.789h61.853v20.48c0 21.616 8.729 42.346 24.226 57.619a83.081 83.081 0 0 0 58.443 23.789h495.341a83.044 83.044 0 0 0 58.443-23.777 80.884 80.884 0 0 0 24.226-57.631v-591.185c0-14.823-3.996-28.697-10.989-40.66h114.201a20.48 20.48 0 0 0 20.667-20.38c0-11.24-9.178-20.38-20.642-20.38H1003.52v-20.48c0-14.811-3.996-28.698-11.002-40.661h11.064c11.364 0 20.58-9.041 20.58-20.368 0-11.251-9.353-20.38-20.58-20.38H894.964a40.248 40.248 0 0 0-6.344-49.626 41.46 41.46 0 0 0-29.197-11.976 41.46 41.46 0 0 0-29.184 11.976l-50.276 49.626z m75.477 40.748h65.66a40.898 40.898 0 0 1 41.123 40.86V619.645a39.711 39.711 0 0 1-39.836 39.711H423.96a39.774 39.774 0 0 1-39.849-39.711v-591.947c0-22.553 18.582-40.86 41.11-40.86H738.63l-10.615 10.49a40.323 40.323 0 0 0-10.74 39.399l-19.48 19.256c-60.729-44.607-146.045-35.428-195.61 21.054a141.35 141.35 0 0 0 6.844 194.086c53.573 53.073 139.614 56.195 196.995 7.143 57.369-49.04 66.535-133.545 20.967-193.461l19.506-19.257a41.522 41.522 0 0 0 39.911-10.577l69.02-68.133z m148.08 101.9h62.127c22.728 0.113 41.085 18.32 41.11 40.76V720.485c0 22.578-18.42 40.76-41.11 40.76H569.73c-22.715-0.125-41.072-18.332-41.085-40.76v-20.38H920.85a83.044 83.044 0 0 0 58.443-23.777 80.884 80.884 0 0 0 24.226-57.644v-529.945zM275.73 837.657h30.758c8.68 0 15.697-6.78 15.697-15.285 0-8.43-7.018-15.285-15.697-15.285h-30.757v-30.346a15.435 15.435 0 0 0-15.485-15.484 15.685 15.685 0 0 0-10.99 4.57 15.285 15.285 0 0 0-4.495 10.914V807.087h-30.757a15.66 15.66 0 0 0-11.077 4.433 15.248 15.248 0 0 0-4.62 10.864c0 8.43 7.017 15.273 15.697 15.273h30.757v30.37a15.485 15.485 0 0 0 30.97 0v-30.37zM33.13-33.53c0 11.24 9.366 20.368 20.593 20.368h124.003c11.352 0 20.58-9.041 20.58-20.368 0-11.251-9.353-20.38-20.58-20.38H53.723c-5.47 0-10.727 2.136-14.586 5.957a20.168 20.168 0 0 0-5.994 14.423z m651.114 131.722a101.014 101.014 0 0 1 26.724 98.441c-9.553 35.166-37.376 62.626-73.004 72.055a104.173 104.173 0 0 1-99.74-26.375 100.976 100.976 0 0 1 0-144.109c40.336-39.811 105.697-39.811 146.02 0zM466.707 577.836c0 11.239 9.24 20.355 20.63 20.367h227.128c11.401 0 20.655-9.116 20.655-20.367 0-11.264-9.241-20.38-20.655-20.38H487.362a20.73 20.73 0 0 0-14.611 5.944 20.18 20.18 0 0 0-6.044 14.436z m0-101.9c0 11.238 9.19 20.38 20.505 20.38h330.64c11.313 0 20.492-9.054 20.492-20.38 0-11.24-9.179-20.38-20.493-20.38h-330.64a20.599 20.599 0 0 0-14.535 5.993 20.118 20.118 0 0 0-5.97 14.386z m0-101.901c0 11.251 9.216 20.38 20.605 20.38H631.92c11.377 0 20.605-9.041 20.605-20.368 0-11.251-9.203-20.38-20.605-20.38H487.312c-5.47-0.012-10.727 2.123-14.599 5.957a20.168 20.168 0 0 0-5.994 14.423zM74.427 496.328a62.09 62.09 0 0 0-53.635 30.57 60.441 60.441 0 0 0 0 61.128 62.09 62.09 0 0 0 53.635 30.57c34.217 0 61.94-27.373 61.94-61.128 0-33.767-27.723-61.14-61.94-61.14z m0 30.57c11.065 0 21.292 5.82 26.824 15.285a30.22 30.22 0 0 1 0 30.57 31.045 31.045 0 0 1-26.824 15.273c-17.108 0-30.97-13.687-30.97-30.558 0-16.883 13.862-30.57 30.97-30.57z m1280.088 91.698c-34.217 0-61.94 27.373-61.94 61.14 0 33.767 27.723 61.14 61.94 61.14 34.204 0 61.94-27.373 61.94-61.14 0-33.767-27.736-61.14-61.94-61.14z m0 30.57c11.064 0 21.291 5.832 26.824 15.285a30.22 30.22 0 0 1 0 30.57 31.045 31.045 0 0 1-26.824 15.285c-17.109 0-30.97-13.686-30.97-30.57 0-16.883 13.861-30.57 30.97-30.57z"  horiz-adv-x="1573" />
      
      <glyph glyph-name="calendar" unicode="&#59412;" d="M184 504V640h128v-48c0-4.8 4-8 8-8h56c4 0 8 3.2 8 8v48h256v-48c0-4.8 4-8 8-8h56c4 0 8 3.2 8 8v48h128v-136H184z m656-448H184V436h656V56z m40 656H712v64c0 4.8-4 8-8 8h-56c-4.8 0-8-3.2-8-8v-64H384v64c0 4.8-4 8-8 8h-56c-4 0-8-3.2-8-8v-64H144c-17.6 0-32-14.4-32-32v-664c0-17.6 14.4-32 32-32h736c17.6 0 32 14.4 32 32V680c0 17.6-14.4 32-32 32z"  horiz-adv-x="1024" />
      
      <glyph glyph-name="eye" unicode="&#59398;" d="M508 272c-61.6 0-112 50.4-112 112s50.4 112 112 112 112-50.4 112-112-50.4-112-112-112z m0 288c-97.6 0-176-79.2-176-176 0-97.6 78.4-176 176-176s176 78.4 176 176-79.2 176-176 176z m4-430.4c-161.6 0-279.2 81.6-362.4 254.4C232.8 556 350.4 638.4 512 638.4S791.2 556 874.4 384C791.2 212 673.6 129.6 512 129.6z m430.4 280C847.2 609.6 704 710.4 512 710.4c-192 0-335.2-100.8-430.4-300-8-16-8-35.2 0-51.2 95.2-200 238.4-300 430.4-300 192 0 335.2 100.8 430.4 300 7.2 15.2 7.2 34.4 0 50.4z"  horiz-adv-x="1024" />
      
      <glyph glyph-name="zoomout1" unicode="&#59097;" d="M636.8 452.8h-312c-4 0-8-3.2-8-8v-60c0-4.8 4-8 8-8h312c4.8 0 8 3.2 8 8v60c0 4.8-3.2 8-8 8z m284-424L775.2 175.20000000000005c122.4 148.8 113.6 369.6-25.6 508.8C600.8 832 360.8 832 212 684 64 535.2 64 295.20000000000005 212 147.20000000000005c139.2-139.2 360-148 508.8-25.6l145.6-145.6c3.2-3.2 8-3.2 11.2 0l43.2 43.2c3.2 1.6 3.2 6.4 0 9.6zM696 200c-119.2-118.4-311.2-118.4-430.4 0-118.4 119.2-118.4 311.2 0 430.4C384 748.8 576.8 748.8 696 630.4c118.4-119.2 118.4-311.2 0-430.4z"  horiz-adv-x="1024" />
      
      <glyph glyph-name="zoomin1" unicode="&#59098;" d="M636.8 452.8H519.2V587.2c0 4-3.2 8-8 8h-60c-4.8 0-8-4-8-8v-134.4H324.8c-4 0-8-3.2-8-8v-60c0-4.8 4-8 8-8h118.4v-134.4c0-4.8 3.2-8 8-8h60c4.8 0 8 3.2 8 8V376.79999999999995h118.4c4.8 0 8 3.2 8 8v60c-0.8 4.8-4 8-8.8 8z m284-424L775.2 175.20000000000005c122.4 148.8 113.6 369.6-25.6 508.8C600.8 832 360.8 832 212 684 64 535.2 64 295.20000000000005 212 147.20000000000005c139.2-139.2 360-148 508.8-25.6l145.6-145.6c3.2-3.2 8-3.2 11.2 0l43.2 43.2c3.2 1.6 3.2 6.4 0 9.6zM696 200c-119.2-118.4-311.2-118.4-430.4 0-118.4 119.2-118.4 311.2 0 430.4C384 748.8 576.8 748.8 696 630.4c118.4-119.2 118.4-311.2 0-430.4z"  horiz-adv-x="1024" />
      
      <glyph glyph-name="zoomin1-copy" unicode="&#59166;" d="M636.8 452.8H519.2V587.2c0 4-3.2 8-8 8h-60c-4.8 0-8-4-8-8v-134.4H324.8c-4 0-8-3.2-8-8v-60c0-4.8 4-8 8-8h118.4v-134.4c0-4.8 3.2-8 8-8h60c4.8 0 8 3.2 8 8V376.79999999999995h118.4c4.8 0 8 3.2 8 8v60c-0.8 4.8-4 8-8.8 8z m284-424L775.2 175.20000000000005c122.4 148.8 113.6 369.6-25.6 508.8C600.8 832 360.8 832 212 684 64 535.2 64 295.20000000000005 212 147.20000000000005c139.2-139.2 360-148 508.8-25.6l145.6-145.6c3.2-3.2 8-3.2 11.2 0l43.2 43.2c3.2 1.6 3.2 6.4 0 9.6zM696 200c-119.2-118.4-311.2-118.4-430.4 0-118.4 119.2-118.4 311.2 0 430.4C384 748.8 576.8 748.8 696 630.4c118.4-119.2 118.4-311.2 0-430.4z"  horiz-adv-x="1024" />
      
      <glyph glyph-name="arrow-double-right" unicode="&#58989;" d="M544 373.333333c0 8.533333-4.266667 17.066667-10.666667 23.466667L192 706.133333c-12.8 12.8-34.133333 10.666667-44.8-2.133333-12.8-12.8-10.666667-34.133333 2.133333-44.8l315.733334-285.866667L149.333333 87.466667c-12.8-12.8-14.933333-32-2.133333-44.8 6.4-6.4 14.933333-10.666667 23.466667-10.666667 8.533333 0 14.933333 2.133333 21.333333 8.533333l341.333333 309.333334c6.4 6.4 10.666667 14.933333 10.666667 23.466666zM864 396.8l-341.333333 309.333333c-12.8 12.8-34.133333 10.666667-44.8-2.133333-12.8-12.8-10.666667-34.133333 2.133333-44.8l315.733333-285.866667-315.733333-285.866666c-12.8-12.8-14.933333-32-2.133333-44.8 6.4-6.4 14.933333-10.666667 23.466666-10.666667 8.533333 0 14.933333 2.133333 21.333334 8.533333l341.333333 309.333334c6.4 6.4 10.666667 14.933333 10.666667 23.466666 0 8.533333-4.266667 17.066667-10.666667 23.466667z"  horiz-adv-x="1024" />
      
      <glyph glyph-name="close" unicode="&#58990;" d="M556.8 384L832 659.2c12.8 12.8 12.8 32 0 44.8-12.8 12.8-32 12.8-44.8 0L512 428.8l-275.2 277.333333c-12.8 12.8-32 12.8-44.8 0-12.8-12.8-12.8-32 0-44.8l275.2-277.333333-277.333333-275.2c-12.8-12.8-12.8-32 0-44.8 6.4-6.4 14.933333-8.533333 23.466666-8.533333s17.066667 2.133333 23.466667 8.533333L512 339.2 787.2 64c6.4-6.4 14.933333-8.533333 23.466667-8.533333s17.066667 2.133333 23.466666 8.533333c12.8 12.8 12.8 32 0 44.8L556.8 384z"  horiz-adv-x="1024" />
      
      <glyph glyph-name="check-item" unicode="&#58991;" d="M853.333333 800H170.666667C130.133333 800 96 765.866667 96 725.333333v-682.666666c0-40.533333 34.133333-74.666667 74.666667-74.666667h682.666666c40.533333 0 74.666667 34.133333 74.666667 74.666667V725.333333c0 40.533333-34.133333 74.666667-74.666667 74.666667z m10.666667-757.333333c0-6.4-4.266667-10.666667-10.666667-10.666667H170.666667c-6.4 0-10.666667 4.266667-10.666667 10.666667V725.333333c0 6.4 4.266667 10.666667 10.666667 10.666667h682.666666c6.4 0 10.666667-4.266667 10.666667-10.666667v-682.666666zM704 514.133333l-243.2-234.666666-117.333333 125.866666c-12.8 12.8-32 12.8-44.8 2.133334-12.8-12.8-12.8-32-2.133334-44.8l140.8-149.333334c6.4-6.4 14.933333-10.666667 23.466667-10.666666 8.533333 0 17.066667 4.266667 21.333333 8.533333l264.533334 256c12.8 12.8 12.8 32 0 44.8-10.666667 12.8-29.866667 14.933333-42.666667 2.133333z"  horiz-adv-x="1024" />
      
      <glyph glyph-name="direction-down" unicode="&#58992;" d="M898.133333 384c-12.8 12.8-32 12.8-44.8 2.133333L544 96V746.666667c0 17.066667-14.933333 32-32 32s-32-14.933333-32-32v-650.666667L170.666667 386.133333c-12.8 12.8-34.133333 10.666667-44.8-2.133333-12.8-12.8-10.666667-34.133333 2.133333-44.8l362.666667-341.333333c2.133333-2.133333 6.4-4.266667 8.533333-6.4 4.266667-2.133333 6.4-2.133333 10.666667-2.133334s8.533333 0 10.666666 2.133334c4.266667 2.133333 6.4 4.266667 8.533334 6.4l362.666666 341.333333c17.066667 12.8 19.2 32 6.4 44.8z"  horiz-adv-x="1024" />
      
      <glyph glyph-name="copy" unicode="&#58993;" d="M853.333333 672h-53.333333V725.333333c0 40.533333-34.133333 74.666667-74.666667 74.666667H170.666667C130.133333 800 96 765.866667 96 725.333333v-554.666666c0-40.533333 34.133333-74.666667 74.666667-74.666667h53.333333V42.666667c0-40.533333 34.133333-74.666667 74.666667-74.666667h554.666666c40.533333 0 74.666667 34.133333 74.666667 74.666667V597.333333c0 40.533333-34.133333 74.666667-74.666667 74.666667zM160 170.666667V725.333333c0 6.4 4.266667 10.666667 10.666667 10.666667h554.666666c6.4 0 10.666667-4.266667 10.666667-10.666667v-554.666666c0-6.4-4.266667-10.666667-10.666667-10.666667H170.666667c-6.4 0-10.666667 4.266667-10.666667 10.666667z m704-128c0-6.4-4.266667-10.666667-10.666667-10.666667H298.666667c-6.4 0-10.666667 4.266667-10.666667 10.666667v53.333333H725.333333c40.533333 0 74.666667 34.133333 74.666667 74.666667V608H853.333333c6.4 0 10.666667-4.266667 10.666667-10.666667v-554.666666zM576 480h-96V576c0 17.066667-14.933333 32-32 32s-32-14.933333-32-32v-96H320c-17.066667 0-32-14.933333-32-32s14.933333-32 32-32h96V320c0-17.066667 14.933333-32 32-32s32 14.933333 32 32v96H576c17.066667 0 32 14.933333 32 32s-14.933333 32-32 32z"  horiz-adv-x="1024" />
      
      <glyph glyph-name="edit" unicode="&#58994;" d="M853.333333 394.666667c-17.066667 0-32-14.933333-32-32v-320c0-6.4-4.266667-10.666667-10.666666-10.666667H170.666667c-6.4 0-10.666667 4.266667-10.666667 10.666667V682.666667c0 6.4 4.266667 10.666667 10.666667 10.666666h320c17.066667 0 32 14.933333 32 32s-14.933333 32-32 32H170.666667c-40.533333 0-74.666667-34.133333-74.666667-74.666666v-640c0-40.533333 34.133333-74.666667 74.666667-74.666667h640c40.533333 0 74.666667 34.133333 74.666666 74.666667V362.666667c0 17.066667-14.933333 32-32 32zM405.333333 411.733333l-32-125.866666c-2.133333-10.666667 0-23.466667 8.533334-29.866667 6.4-6.4 14.933333-8.533333 23.466666-8.533333h8.533334l125.866666 32c6.4 2.133333 10.666667 4.266667 14.933334 8.533333l300.8 300.8c38.4 38.4 38.4 102.4 0 140.8-38.4 38.4-102.4 38.4-140.8 0L413.866667 426.666667c-4.266667-4.266667-6.4-8.533333-8.533334-14.933334z m59.733334-23.466666L761.6 682.666667c12.8 12.8 36.266667 12.8 49.066667 0 12.8-12.8 12.8-36.266667 0-49.066667L516.266667 337.066667l-66.133334-17.066667 14.933334 68.266667z"  horiz-adv-x="1024" />
      
      <glyph glyph-name="eye-close" unicode="&#58995;" d="M955.733333 403.2c-6.4 12.8-162.133333 317.866667-443.733333 317.866667-23.466667 0-46.933333-2.133333-70.4-6.4-17.066667-4.266667-29.866667-19.2-25.6-36.266667 4.266667-17.066667 19.2-29.866667 36.266667-25.6 19.2 4.266667 38.4 4.266667 57.6 4.266667 209.066667 0 345.6-209.066667 379.733333-266.666667-10.666667-19.2-32-53.333333-64-91.733333-10.666667-12.8-8.533333-34.133333 4.266667-44.8 6.4-4.266667 12.8-6.4 21.333333-6.4s19.2 4.266667 25.6 10.666666c51.2 61.866667 78.933333 115.2 78.933333 117.333334 6.4 8.533333 6.4 19.2 0 27.733333zM215.466667 770.133333c-12.8 12.8-32 12.8-44.8 0-12.8-12.8-12.8-32 0-44.8l91.733333-91.733333C138.666667 541.866667 72.533333 411.733333 68.266667 405.333333c-4.266667-8.533333-4.266667-19.2 0-29.866666 6.4-12.8 162.133333-315.733333 443.733333-315.733334 83.2 0 164.266667 27.733333 241.066667 81.066667l96-96c6.4-6.4 14.933333-8.533333 23.466666-8.533333s17.066667 2.133333 23.466667 8.533333c12.8 12.8 12.8 32 0 44.8L215.466667 770.133333z m243.2-334.933333l104.533333-104.533333c-12.8-12.8-32-21.333333-51.2-21.333334-40.533333 0-74.666667 34.133333-74.666667 74.666667 0 19.2 8.533333 38.4 21.333334 51.2zM512 123.733333c-209.066667 0-345.6 209.066667-379.733333 266.666667 21.333333 36.266667 81.066667 130.133333 174.933333 196.266667l104.533333-104.533334c-25.6-25.6-38.4-59.733333-38.4-96 0-76.8 61.866667-138.666667 138.666667-138.666666 36.266667 0 70.4 14.933333 96 38.4l98.133333-98.133334c-61.866667-42.666667-128-64-194.133333-64z"  horiz-adv-x="1024" />
      
      <glyph glyph-name="error" unicode="&#58996;" d="M512 821.333333C270.933333 821.333333 74.666667 625.066667 74.666667 384S270.933333-53.333333 512-53.333333 949.333333 142.933333 949.333333 384 753.066667 821.333333 512 821.333333z m0-810.666666c-204.8 0-373.333333 168.533333-373.333333 373.333333S307.2 757.333333 512 757.333333 885.333333 588.8 885.333333 384 716.8 10.666667 512 10.666667zM657.066667 535.466667c-12.8 12.8-32 12.8-44.8 0l-102.4-102.4-102.4 102.4c-12.8 12.8-32 12.8-44.8 0-12.8-12.8-12.8-32 0-44.8l102.4-102.4-102.4-102.4c-12.8-12.8-12.8-32 0-44.8 6.4-6.4 14.933333-8.533333 23.466666-8.533334s17.066667 2.133333 23.466667 8.533334l102.4 102.4 102.4-102.4c6.4-6.4 14.933333-8.533333 23.466667-8.533334s17.066667 2.133333 23.466666 8.533334c12.8 12.8 12.8 32 0 44.8l-106.666666 100.266666 102.4 102.4c12.8 12.8 12.8 34.133333 0 46.933334z"  horiz-adv-x="1024" />
      
      <glyph glyph-name="favorite" unicode="&#58997;" d="M934.4 539.733333c-8.533333 10.666667-21.333333 19.2-34.133333 21.333334l-234.666667 34.133333-104.533333 213.333333c-6.4 8.533333-14.933333 17.066667-25.6 23.466667-12.8 6.4-27.733333 6.4-40.533334 2.133333-12.8-4.266667-23.466667-14.933333-29.866666-27.733333l-104.533334-213.333333-234.666666-34.133334c-10.666667-2.133333-21.333333-6.4-29.866667-14.933333-21.333333-21.333333-19.2-55.466667 0-74.666667l170.666667-166.4-40.533334-234.666666c-2.133333-10.666667 0-23.466667 6.4-34.133334 12.8-25.6 46.933333-36.266667 72.533334-21.333333l211.2 110.933333 211.2-110.933333c8.533333-4.266667 17.066667-6.4 25.6-6.4h8.533333c14.933333 2.133333 25.6 10.666667 34.133333 21.333333 8.533333 10.666667 10.666667 25.6 8.533334 40.533334l-40.533334 234.666666 170.666667 166.4c8.533333 8.533333 14.933333 19.2 14.933333 29.866667-2.133333 14.933333-6.4 27.733333-14.933333 40.533333z m-224-194.133333c-12.8-12.8-19.2-29.866667-14.933333-46.933333l38.4-217.6L512 196.266667l-221.866667-115.2L328.533333 298.666667c2.133333 17.066667-2.133333 34.133333-14.933333 46.933333l-157.866667 153.6 219.733334 32c17.066667 2.133333 32 12.8 40.533333 29.866667L512 759.466667l98.133333-198.4c8.533333-14.933333 23.466667-27.733333 40.533334-29.866667l219.733333-32-160-153.6z"  horiz-adv-x="1024" />
      
      <glyph glyph-name="fabulous" unicode="&#58998;" d="M859.733333 642.133333c-44.8 44.8-102.4 70.4-166.4 70.4-61.866667 0-121.6-25.6-166.4-70.4l-14.933333-17.066666-17.066667 17.066666c-44.8 44.8-102.4 70.4-166.4 70.4-61.866667 0-121.6-25.6-166.4-70.4-91.733333-91.733333-91.733333-243.2 0-337.066666l324.266667-330.666667c6.4-6.4 14.933333-8.533333 23.466667-8.533333s17.066667 4.266667 23.466666 8.533333l324.266667 330.666667c44.8 44.8 68.266667 104.533333 68.266667 168.533333s-21.333333 123.733333-66.133334 168.533333z m-44.8-290.133333L512 42.666667 209.066667 352c-66.133333 68.266667-66.133333 179.2 0 247.466667 32 32 74.666667 51.2 119.466666 51.2 44.8 0 87.466667-17.066667 119.466667-51.2l38.4-40.533334c12.8-12.8 34.133333-12.8 44.8 0l38.4 40.533334c32 32 74.666667 51.2 119.466667 51.2 44.8 0 87.466667-17.066667 119.466666-51.2 32-32 49.066667-76.8 49.066667-123.733334s-12.8-91.733333-42.666667-123.733333z"  horiz-adv-x="1024" />
      
      <glyph glyph-name="minus-circle" unicode="&#58999;" d="M512-53.333333C270.933333-53.333333 74.666667 142.933333 74.666667 384S270.933333 821.333333 512 821.333333 949.333333 625.066667 949.333333 384 753.066667-53.333333 512-53.333333z m0 810.666666C307.2 757.333333 138.666667 588.8 138.666667 384S307.2 10.666667 512 10.666667 885.333333 179.2 885.333333 384 716.8 757.333333 512 757.333333zM682.666667 352H341.333333c-17.066667 0-32 14.933333-32 32s14.933333 32 32 32h341.333334c17.066667 0 32-14.933333 32-32s-14.933333-32-32-32z"  horiz-adv-x="1024" />
      
      <glyph glyph-name="minus" unicode="&#59002;" d="M853.333333 352H170.666667c-17.066667 0-32 14.933333-32 32s14.933333 32 32 32h682.666666c17.066667 0 32-14.933333 32-32s-14.933333-32-32-32z"  horiz-adv-x="1024" />
      
      <glyph glyph-name="search" unicode="&#59005;" d="M945.066667-2.133333l-189.866667 189.866666c55.466667 64 87.466667 149.333333 87.466667 241.066667 0 204.8-168.533333 373.333333-373.333334 373.333333S96 631.466667 96 426.666667 264.533333 53.333333 469.333333 53.333333c91.733333 0 174.933333 34.133333 241.066667 87.466667l189.866667-189.866667c6.4-6.4 14.933333-8.533333 23.466666-8.533333s17.066667 2.133333 23.466667 8.533333c8.533333 12.8 8.533333 34.133333-2.133333 46.933334zM469.333333 117.333333C298.666667 117.333333 160 256 160 426.666667S298.666667 736 469.333333 736 778.666667 597.333333 778.666667 426.666667 640 117.333333 469.333333 117.333333z"  horiz-adv-x="1024" />
      
      <glyph glyph-name="select" unicode="&#59006;" d="M409.6 138.666667c-8.533333 0-17.066667 2.133333-23.466667 8.533333l-238.933333 234.666667c-12.8 12.8-12.8 32 0 44.8 12.8 12.8 32 12.8 44.8 0l215.466667-213.333334 422.4 428.8c12.8 12.8 32 12.8 44.8 0 12.8-12.8 12.8-32 0-44.8L430.933333 149.333333c-4.266667-8.533333-12.8-10.666667-21.333333-10.666666z"  horiz-adv-x="1024" />
      
      <glyph glyph-name="smile" unicode="&#59007;" d="M512 821.333333C270.933333 821.333333 74.666667 625.066667 74.666667 384S270.933333-53.333333 512-53.333333 949.333333 142.933333 949.333333 384 753.066667 821.333333 512 821.333333z m0-810.666666c-204.8 0-373.333333 168.533333-373.333333 373.333333S307.2 757.333333 512 757.333333 885.333333 588.8 885.333333 384 716.8 10.666667 512 10.666667zM674.133333 288c-46.933333-57.6-100.266667-85.333333-162.133333-85.333333s-115.2 27.733333-162.133333 85.333333c-10.666667 12.8-32 14.933333-44.8 4.266667-12.8-10.666667-14.933333-32-4.266667-44.8 59.733333-70.4 130.133333-106.666667 211.2-106.666667s151.466667 36.266667 211.2 106.666667c10.666667 12.8 8.533333 34.133333-4.266667 44.8-12.8 10.666667-34.133333 8.533333-44.8-4.266667zM362.666667 384c23.466667 0 42.666667 19.2 42.666666 42.666667v64c0 23.466667-19.2 42.666667-42.666666 42.666666s-42.666667-19.2-42.666667-42.666666v-64c0-23.466667 19.2-42.666667 42.666667-42.666667zM661.333333 384c23.466667 0 42.666667 19.2 42.666667 42.666667v64c0 23.466667-19.2 42.666667-42.666667 42.666666s-42.666667-19.2-42.666666-42.666666v-64c0-23.466667 19.2-42.666667 42.666666-42.666667z"  horiz-adv-x="1024" />
      
      <glyph glyph-name="zoom-in" unicode="&#59011;" d="M945.066667-2.133333l-189.866667 189.866666c55.466667 64 87.466667 149.333333 87.466667 241.066667 0 204.8-168.533333 373.333333-373.333334 373.333333S96 631.466667 96 426.666667 264.533333 53.333333 469.333333 53.333333c91.733333 0 174.933333 34.133333 241.066667 87.466667l189.866667-189.866667c6.4-6.4 14.933333-8.533333 23.466666-8.533333s17.066667 2.133333 23.466667 8.533333c8.533333 12.8 8.533333 34.133333-2.133333 46.933334zM469.333333 117.333333C298.666667 117.333333 160 256 160 426.666667S298.666667 736 469.333333 736 778.666667 597.333333 778.666667 426.666667 640 117.333333 469.333333 117.333333zM597.333333 458.666667H341.333333c-17.066667 0-32-14.933333-32-32s14.933333-32 32-32h256c17.066667 0 32 14.933333 32 32s-14.933333 32-32 32z"  horiz-adv-x="1024" />
      
      <glyph glyph-name="zoom-out" unicode="&#59012;" d="M945.066667-2.133333l-189.866667 189.866666c55.466667 64 87.466667 149.333333 87.466667 241.066667 0 204.8-168.533333 373.333333-373.333334 373.333333S96 631.466667 96 426.666667 264.533333 53.333333 469.333333 53.333333c91.733333 0 174.933333 34.133333 241.066667 87.466667l189.866667-189.866667c6.4-6.4 14.933333-8.533333 23.466666-8.533333s17.066667 2.133333 23.466667 8.533333c8.533333 12.8 8.533333 34.133333-2.133333 46.933334zM469.333333 117.333333C298.666667 117.333333 160 256 160 426.666667S298.666667 736 469.333333 736 778.666667 597.333333 778.666667 426.666667 640 117.333333 469.333333 117.333333zM597.333333 458.666667h-96V554.666667c0 17.066667-14.933333 32-32 32s-32-14.933333-32-32v-96H341.333333c-17.066667 0-32-14.933333-32-32s14.933333-32 32-32h96V298.666667c0-17.066667 14.933333-32 32-32s32 14.933333 32 32v96H597.333333c17.066667 0 32 14.933333 32 32s-14.933333 32-32 32z"  horiz-adv-x="1024" />
      
      <glyph glyph-name="add-bold" unicode="&#59013;" d="M874.666667 426.666667H554.666667V746.666667c0 23.466667-19.2 42.666667-42.666667 42.666666s-42.666667-19.2-42.666667-42.666666v-320H149.333333c-23.466667 0-42.666667-19.2-42.666666-42.666667s19.2-42.666667 42.666666-42.666667h320v-320c0-23.466667 19.2-42.666667 42.666667-42.666666s42.666667 19.2 42.666667 42.666666V341.333333h320c23.466667 0 42.666667 19.2 42.666666 42.666667s-19.2 42.666667-42.666666 42.666667z"  horiz-adv-x="1024" />
      
      <glyph glyph-name="arrow-left-bold" unicode="&#59014;" d="M384 384L731.733333 693.333333c17.066667 14.933333 19.2 42.666667 4.266667 59.733334-14.933333 17.066667-42.666667 19.2-59.733333 4.266666l-384-341.333333c-10.666667-8.533333-14.933333-19.2-14.933334-32s4.266667-23.466667 14.933334-32l384-341.333333c8.533333-6.4 19.2-10.666667 27.733333-10.666667 12.8 0 23.466667 4.266667 32 14.933333 14.933333 17.066667 14.933333 44.8-4.266667 59.733334L384 384z"  horiz-adv-x="1024" />
      
      <glyph glyph-name="arrow-up-bold" unicode="&#59015;" d="M904.533333 221.866667l-362.666666 362.666666c-17.066667 17.066667-42.666667 17.066667-59.733334 0l-362.666666-362.666666c-17.066667-17.066667-17.066667-42.666667 0-59.733334 17.066667-17.066667 42.666667-17.066667 59.733333 0L512 494.933333l332.8-332.8c8.533333-8.533333 19.2-12.8 29.866667-12.8s21.333333 4.266667 29.866666 12.8c17.066667 17.066667 17.066667 42.666667 0 59.733334z"  horiz-adv-x="1024" />
      
      <glyph glyph-name="setting-filling" unicode="&#59019;" d="M550.4 821.333333c25.6 0 46.933333-19.2 53.333333-44.8l14.933334-85.333333 38.4-17.066667L727.466667 725.333333c19.2 14.933333 46.933333 12.8 66.133333-4.266666l2.133333-2.133334 53.333334-53.333333c19.2-19.2 21.333333-46.933333 6.4-68.266667l-49.066667-70.4 17.066667-38.4 85.333333-14.933333c23.466667-4.266667 42.666667-25.6 44.8-49.066667v-78.933333c0-25.6-19.2-46.933333-44.8-53.333333l-85.333333-14.933334-17.066667-38.4 49.066667-70.4c14.933333-19.2 12.8-46.933333-4.266667-66.133333l-2.133333-2.133333-53.333334-53.333334c-19.2-19.2-46.933333-21.333333-68.266666-6.4l-70.4 49.066667-38.4-17.066667-14.933334-85.333333c-4.266667-23.466667-25.6-42.666667-49.066666-44.8h-78.933334c-25.6 0-46.933333 19.2-53.333333 44.8l-14.933333 85.333333-38.4 17.066667-72.533334-46.933333c-19.2-14.933333-46.933333-12.8-66.133333 4.266666l-2.133333 2.133334-53.333334 53.333333c-19.2 19.2-21.333333 46.933333-6.4 68.266667l49.066667 70.4-17.066667 38.4-85.333333 14.933333c-23.466667 4.266667-42.666667 25.6-44.8 49.066667v78.933333c0 25.6 19.2 46.933333 44.8 53.333333l85.333333 14.933334 17.066667 38.4L170.666667 599.466667c-14.933333 19.2-12.8 46.933333 2.133333 64l2.133333 2.133333 53.333334 53.333333c19.2 19.2 46.933333 21.333333 68.266666 6.4l70.4-49.066666 38.4 17.066666 14.933334 85.333334c4.266667 23.466667 25.6 42.666667 49.066666 44.8H550.4z m-38.4-320c-64 0-117.333333-53.333333-117.333333-117.333333s53.333333-117.333333 117.333333-117.333333 117.333333 53.333333 117.333333 117.333333-53.333333 117.333333-117.333333 117.333333z"  horiz-adv-x="1024" />
      
      <glyph glyph-name="search1" unicode="&#59124;" d="M912.02 43.16l-194.8 194.8c46.83 59 75.03 133.43 75.03 214.44 0 190.64-155.1 345.74-345.74 345.74-190.65 0-345.75-155.1-345.75-345.74 0-190.66 155.1-345.76 345.75-345.76 78 0 149.81 26.28 207.73 70.02l195.64-195.64c8.57-8.58 19.83-12.88 31.07-12.88s22.5 4.29 31.07 12.88c17.16 17.16 17.16 44.97 0 62.14zM188.64 452.4c0 142.19 115.67 257.85 257.86 257.85 142.17 0 257.85-115.66 257.85-257.85S588.68 194.53 446.5 194.53 188.64 310.21 188.64 452.4z"  horiz-adv-x="1024" />
      
      <glyph glyph-name="Feedback" unicode="&#59133;" d="M138.87 99.85a46.477 46.477 0 0 1 26.68-8.41c6.68 0 13.41 1.43 19.68 4.36l241.11 112.45a46.357 46.357 0 0 1 27.33 18.56l261.98 374.15c14.73 21.07 9.61 50.09-11.43 64.84L477.3 824.7c-10.11 7.07-22.57 9.91-34.79 7.7a46.53 46.53 0 0 1-30.04-19.13L150.48 439.12c-6.54-9.36-8.96-20.27-8.01-30.82l-23.28-266.27a46.533 46.533 0 0 1 19.68-42.18z m323.16 621.91L612.7 616.24 385.64 291.99l-166.7-77.76 16.02 183.2 227.07 324.33zM860.09 28.22H165.55c-25.7 0-46.54-20.84-46.54-46.54s20.84-46.54 46.54-46.54h694.54c25.7 0 46.54 20.84 46.54 46.54s-20.84 46.54-46.54 46.54z"  horiz-adv-x="1024" />
      
      <glyph glyph-name="edit1" unicode="&#59165;" d="M885.54 416.58c-24.18 0-43.79-19.61-43.79-43.79v-318.22H184.91V711.41h325.38c24.18 0 43.79 19.61 43.79 43.79s-19.61 43.79-43.79 43.79H141.12c-24.18 0-43.79-19.61-43.79-43.79v-744.42c0-24.18 19.61-43.79 43.79-43.79h744.42c24.18 0 43.79 19.61 43.79 43.79V372.79c0 24.18-19.61 43.79-43.79 43.79zM600.88 674.44L400.07 442.28c-6.08-7.03-9.47-15.44-10.37-24.03l-66.62-229.64c-4.77-16.44 0.47-34.15 13.41-45.33a43.816 43.816 0 0 1 28.65-10.67c6.14 0 12.32 1.28 18.13 3.93l218.47 99.37c8.04 2.23 15.58 6.57 21.45 13.35l200.84 232.18 0.04 0.04c0.01 0.02 0.02 0.04 0.04 0.05l94.55 109.31a43.845 43.845 0 0 1 10.56 31.82c-0.86 11.59-6.24 22.36-15.03 29.96l-156.9 135.69c-18.32 15.82-45.95 13.81-61.77-4.47l-94.53-109.29c-0.02-0.02-0.04-0.03-0.06-0.06-0.02-0.01-0.03-0.03-0.05-0.05zM473.73 393.56l164.79 190.52 90.64-78.4-164.83-190.57-130.59-59.41 39.99 137.86z m259.38 299.87l90.66-78.38-37.3-43.12-90.64 78.4 37.28 43.1z"  horiz-adv-x="1024" />
      
      <glyph glyph-name="a-add2" unicode="&#58893;" d="M512 384m-458.443515 0a458.443515 458.443515 0 1 1 916.88703 0 458.443515 458.443515 0 1 1-916.88703 0ZM740.322008 439.69446h-185.493958V625.184134h-85.690376v-185.489674H283.643715v-85.690376h185.493959v-185.493958h85.690376v185.493958h185.493958zM507.715481 836.355213c-253.189356 0-458.443515-205.254159-458.443514-458.443514 0-253.19364 205.254159-458.443515 458.443514-458.443515s458.443515 205.249874 458.443515 458.443515c0 253.189356-205.258444 458.443515-458.443515 458.443514z m17.138075-895.464435c-231.895297 0-419.882845 187.987548-419.882845 419.882845s187.987548 419.882845 419.882845 419.882846 419.882845-187.987548 419.882846-419.882846-187.987548-419.882845-419.882846-419.882845zM507.715481 846.728033c-253.189356 0-458.443515-205.254159-458.443514-458.443514s205.254159-458.443515 458.443514-458.443515 458.443515 205.254159 458.443515 458.443515c0 253.19364-205.258444 458.443515-458.443515 458.443514z m-10.711297-852.619246c-233.077824 0-422.025105 188.955849-422.025105 422.025104 0 233.077824 188.94728 422.025105 422.025105 422.025105 233.069255 0 422.025105-188.94728 422.025105-422.025105 0-233.069255-188.955849-422.025105-422.025105-422.025104z"  horiz-adv-x="1024" />
      
      <glyph glyph-name="approve" unicode="&#58894;" d="M512 379.623932m-468.239316 0a468.239316 468.239316 0 1 1 936.478632 0 468.239316 468.239316 0 1 1-936.478632 0ZM507.623932 841.640479c-258.599385 0-468.239316-209.639932-468.239317-468.239317s209.639932-468.239316 468.239317-468.239316 468.239316 209.639932 468.239316 468.239316-209.639932 468.239316-468.239316 468.239317z m17.504273-914.598291c-236.850325 0-428.854701 192.004376-428.854701 428.854701s192.004376 428.854701 428.854701 428.854701 428.854701-192.004376 428.854701-428.854701-192.004376-428.854701-428.854701-428.854701zM507.623932 852.239316C249.024547 852.239316 39.384615 642.599385 39.384615 384s209.639932-468.239316 468.239317-468.239316 468.239316 209.639932 468.239316 468.239316S766.223316 852.239316 507.623932 852.239316z m-10.940171-870.837607C258.625641-18.598291 65.641026 174.390701 65.641026 412.444444 65.641026 650.502564 258.625641 843.487179 496.683761 843.487179c238.053744 0 431.042735-192.984615 431.042735-431.042735 0-238.053744-192.988991-431.042735-431.042735-431.042735zM255.868718 373.191111l149.963487-149.959111 30.94318-30.947556 30.943179 30.947556 290.697846 290.697846-61.890735 61.886359-290.69347-290.697846h61.886359l-149.963487 149.963487z"  horiz-adv-x="1024" />
      
      <glyph glyph-name="shanchu" unicode="&#58881;" d="M434.176 201.216c-15.872 0-28.672 12.8-28.672 28.672v140.8c0 15.872 12.8 28.672 28.672 28.672 15.872 0 28.672-12.8 28.672-28.672v-140.8c0-15.872-12.8-28.672-28.672-28.672zM595.2 201.216c-15.872 0-28.672 12.8-28.672 28.672v140.8c0 15.872 12.8 28.672 28.672 28.672 15.872 0 28.672-12.8 28.672-28.672v-140.8c-0.256-15.872-12.8-28.672-28.672-28.672zM836.608 606.976H677.376V648.704c0 50.944-41.472 92.416-92.416 92.416H437.76c-50.944 0-92.416-41.472-92.416-92.416v-41.728H179.2c-15.872 0-28.672-12.8-28.672-28.672 0-15.872 12.8-28.672 28.672-28.672h31.744V120.32c0-62.976 51.2-113.92 113.92-113.92h372.48c62.976 0 113.92 51.2 113.92 113.92V549.888h25.088c15.872 0 28.672 12.8 28.672 28.672 0.256 15.616-12.544 28.416-28.416 28.416zM402.432 648.704c0 19.456 15.872 35.328 35.328 35.328h147.2c19.456 0 35.328-15.872 35.328-35.328v-41.728h-217.856V648.704z m352-528.128c0-31.232-25.6-56.832-56.832-56.832H325.12c-31.232 0-56.832 25.6-56.832 56.832V549.888h486.4v-429.312z"  horiz-adv-x="1024" />
      
      <glyph glyph-name="dianzan" unicode="&#59032;" d="M217.6 76.79999999999995c-17.066667 0-38.4 12.8-38.4 38.4v345.6c0 17.066667 12.8 29.866667 29.866667 29.866667 17.066667 0 29.866667-12.8 29.866666-29.866667v-345.6c12.8-21.333333-4.266667-38.4-21.333333-38.4zM187.733333 460.8c0 17.066667 12.8 38.4 29.866667 38.4h89.6c21.333333-4.266667 34.133333-17.066667 34.133333-34.133333s-12.8-29.866667-29.866666-29.866667H217.6c-17.066667-12.8-29.866667 4.266667-29.866667 25.6zM187.733333 115.20000000000005c0 17.066667 12.8 38.4 29.866667 38.4h89.6c17.066667 0 29.866667-12.8 29.866667-29.866667 0-17.066667-12.8-38.4-29.866667-38.4H217.6c-17.066667-8.533333-29.866667 8.533333-29.866667 29.866667zM763.733333 76.79999999999995H409.6c-17.066667 0-38.4 12.8-38.4 38.4v345.6c0 12.8 8.533333 25.6 25.6 29.866667 46.933333 12.8 85.333333 106.666667 110.933333 179.2 12.8 42.666667 51.2 68.266667 89.6 72.533333 42.666667 0 76.8-21.333333 89.6-59.733333 21.333333-81.066667 0-145.066667-21.333333-187.733334h209.066667c8.533333 0 21.333333-4.266667 25.6-12.8 4.266667-8.533333 8.533333-17.066667 4.266666-29.866666l-115.2-345.6c4.266667-21.333333-12.8-29.866667-25.6-29.866667z m-324.266666 68.266667h294.4l89.6 277.333333h-234.666667c-12.8 0-25.6 8.533333-29.866667 21.333333-4.266667 12.8 0 29.866667 12.8 38.4 4.266667 0 81.066667 59.733333 55.466667 174.933334-4.266667 8.533333-12.8 12.8-21.333333 12.8s-21.333333-4.266667-25.6-21.333334c-17.066667-64-64-174.933333-132.266667-213.333333v-285.866667h-8.533333z"  horiz-adv-x="1024" />
      
      <glyph glyph-name="dingwei" unicode="&#59033;" d="M819.2 435.2c0-170.666667-217.6-409.6-311.466667-409.6-85.333333-4.266667-311.466667 238.933333-311.466666 409.6s136.533333 311.466667 311.466666 311.466667 311.466667-145.066667 311.466667-311.466667zM507.733333-4.266667C396.8-4.266667 170.666667 256 170.666667 435.2c0 187.733333 153.6 337.066667 337.066666 337.066667s337.066667-153.6 337.066667-337.066667-221.866667-439.466667-337.066667-439.466667z m0 716.8c-153.6 0-277.333333-123.733333-277.333333-277.333333 0-162.133333 217.6-384 277.333333-384 68.266667 0 277.333333 213.333333 277.333334 384 0 153.6-123.733333 277.333333-277.333334 277.333333zM507.733333 448m-119.466666 0a119.466667 119.466667 0 1 1 238.933333 0 119.466667 119.466667 0 1 1-238.933333 0ZM507.733333 294.4c-81.066667 0-153.6 68.266667-153.6 153.6s68.266667 153.6 153.6 153.6 153.6-68.266667 153.6-153.6-72.533333-153.6-153.6-153.6z m0 247.466667c-51.2 0-93.866667-42.666667-93.866666-93.866667s42.666667-93.866667 93.866666-93.866667 93.866667 42.666667 93.866667 93.866667c0 51.2-42.666667 93.866667-93.866667 93.866667z"  horiz-adv-x="1024" />
      
      <glyph glyph-name="fenxiang" unicode="&#59034;" d="M605.866667 507.733333V686.933333l221.866666-277.333333-221.866666-273.066667v157.866667s-260.266667 42.666667-413.866667-157.866667c0-4.266667-89.6 384 413.866667 371.2zM192 98.133333h-8.533333c-12.8 4.266667-21.333333 12.8-25.6 25.6 0 8.533333-34.133333 162.133333 64 285.866667 68.266667 85.333333 187.733333 128 349.866666 128V682.666667c0 12.8 8.533333 25.6 21.333334 29.866666s25.6 0 34.133333-8.533333L853.333333 426.666667c8.533333-12.8 8.533333-29.866667 0-38.4l-221.866666-273.066667c-8.533333-8.533333-21.333333-12.8-34.133334-8.533333-12.8 4.266667-21.333333 17.066667-21.333333 29.866666v128c-68.266667 4.266667-247.466667 0-358.4-149.333333-8.533333-12.8-17.066667-17.066667-25.6-17.066667z m384 375.466667c-140.8 0-243.2-34.133333-302.933333-106.666667-42.666667-51.2-55.466667-115.2-55.466667-162.133333 162.133333 149.333333 384 115.2 392.533333 115.2 17.066667-4.266667 25.6-17.066667 25.6-29.866667v-64l149.333334 183.466667L635.733333 597.333333v-89.6c0-8.533333-4.266667-17.066667-8.533333-21.333333-4.266667-4.266667-12.8-8.533333-21.333333-8.533333-12.8-4.266667-21.333333-4.266667-29.866667-4.266667z"  horiz-adv-x="1024" />
      
      <glyph glyph-name="faxian" unicode="&#59035;" d="M512 42.66666699999996c-200.533333 0-362.666667 162.133333-362.666667 362.666666S311.466667 768 512 768s362.666667-162.133333 362.666667-362.666667S712.533333 42.66666699999996 512 42.66666699999996z m0 669.866666c-166.4 0-307.2-136.533333-307.2-307.2S341.333333 98.133333 512 98.133333s307.2 136.533333 307.2 307.2S682.666667 712.533333 512 712.533333zM512 204.79999999999995c-12.8 0-21.333333 4.266667-25.6 17.066667l-85.333333 170.666666c-4.266667 8.533333-4.266667 17.066667 0 25.6l85.333333 166.4c4.266667 4.266667 12.8 12.8 25.6 12.8s21.333333-4.266667 25.6-12.8l98.133333-166.4c4.266667-8.533333 4.266667-21.333333 0-29.866666l-98.133333-170.666667c-4.266667-8.533333-17.066667-12.8-25.6-12.8z m-59.733333 200.533333l59.733333-119.466666 68.266667 119.466666L512 520.5333330000001l-59.733333-115.2z"  horiz-adv-x="1024" />
      
      <glyph glyph-name="jilu" unicode="&#59036;" d="M665.6 418.133333H379.733333c-17.066667 0-29.866667 12.8-29.866666 29.866667 0 17.066667 12.8 34.133333 29.866666 34.133333h281.6c17.066667 0 29.866667-12.8 29.866667-34.133333 4.266667-17.066667-8.533333-29.866667-25.6-29.866667zM665.6 290.133333H379.733333c-17.066667 0-29.866667 12.8-29.866666 29.866667 0 17.066667 12.8 29.866667 29.866666 29.866667h281.6c17.066667 0 29.866667-12.8 29.866667-29.866667 4.266667-12.8-8.533333-29.866667-25.6-29.866667zM665.6 162.133333H379.733333c-17.066667 0-29.866667 12.8-29.866666 29.866667 0 17.066667 12.8 29.866667 29.866666 29.866667h281.6c17.066667 0 29.866667-12.8 29.866667-29.866667 4.266667-12.8-8.533333-29.866667-25.6-29.866667zM746.666667 712.533333h-42.666667v-59.733333h42.666667c8.533333 0 12.8-4.266667 12.8-12.8v-567.466667c0-8.533333-4.266667-12.8-12.8-12.8H294.4c-8.533333 0-12.8 4.266667-12.8 12.8V635.733333c0 8.533333 4.266667 12.8 12.8 12.8h42.666667V708.266667h-42.666667c-42.666667 0-76.8-34.133333-76.8-76.8v-567.466667c0-42.666667 34.133333-76.8 76.8-76.8h452.266667c42.666667 0 76.8 34.133333 76.8 76.8V635.733333c0 42.666667-34.133333 76.8-76.8 76.8zM635.733333 648.533333h-298.666666c0-38.4 29.866667-68.266667 68.266666-68.266666h230.4c38.4 0 68.266667 29.866667 68.266667 68.266666h-68.266667zM409.6 712.533333h298.666667c0 38.4-29.866667 68.266667-68.266667 68.266667H409.6c-38.4 0-68.266667-29.866667-72.533333-68.266667h72.533333zM640 708.266667v-59.733334h68.266667V708.266667h-264.533334H640zM337.066667 648.533333h264.533333-196.266667V712.533333H337.066667v-64z"  horiz-adv-x="1024" />
      
      <glyph glyph-name="shezhi" unicode="&#59037;" d="M704 742.4H332.8c-8.533333 0-21.333333-4.266667-25.6-12.8l-187.733333-324.266667c-4.266667-8.533333-4.266667-21.333333 0-29.866666l187.733333-324.266667c4.266667-8.533333 12.8-12.8 25.6-12.8h375.466667c8.533333 0 21.333333 4.266667 25.6 12.8l187.733333 324.266667c4.266667 8.533333 4.266667 21.333333 0 29.866666l-187.733333 324.266667c-8.533333 8.533333-17.066667 12.8-29.866667 12.8zM704 4.266667H332.8c-21.333333 0-42.666667 12.8-51.2 29.866666l-187.733333 324.266667c-12.8 17.066667-12.8 42.666667 0 59.733333l187.733333 324.266667c12.8 17.066667 29.866667 29.866667 51.2 29.866667h375.466667c21.333333 0 42.666667-12.8 51.2-29.866667l187.733333-324.266667c12.8-17.066667 12.8-42.666667 0-59.733333l-187.733333-324.266667c-12.8-17.066667-34.133333-29.866667-55.466667-29.866666zM332.8 708.266667L149.333333 384l187.733334-320h371.2l183.466666 324.266667-187.733333 320H332.8zM520.533333 388.266667m-145.066666 0a145.066667 145.066667 0 1 1 290.133333 0 145.066667 145.066667 0 1 1-290.133333 0ZM520.533333 209.066667c-98.133333 0-179.2 81.066667-179.2 179.2 0 98.133333 81.066667 179.2 179.2 179.2s179.2-81.066667 179.2-179.2c-4.266667-98.133333-81.066667-179.2-179.2-179.2z m0 294.4c-64 0-115.2-51.2-115.2-115.2 0-64 51.2-115.2 115.2-115.2s115.2 51.2 115.2 115.2c-4.266667 64-55.466667 115.2-115.2 115.2z"  horiz-adv-x="1024" />
      
      <glyph glyph-name="tishi" unicode="&#59039;" d="M785.066667 140.8H290.133333c-46.933333 0-89.6 38.4-89.6 89.6v230.4c0 174.933333 140.8 315.733333 315.733334 315.733333h38.4c174.933333 0 315.733333-140.8 315.733333-315.733333v-230.4c4.266667-51.2-38.4-89.6-85.333333-89.6zM520.533333 708.266667c-140.8 0-251.733333-115.2-251.733333-251.733334v-230.4c0-12.8 12.8-25.6 25.6-25.6h494.933333c12.8 0 25.6 12.8 25.6 25.6v230.4C810.666667 597.333333 695.466667 708.266667 554.666667 708.266667h-34.133334zM537.6 25.6c-102.4 0-183.466667 59.733333-183.466667 140.8h64c0-42.666667 55.466667-76.8 119.466667-76.8s119.466667 34.133333 119.466667 76.8h64c0-81.066667-81.066667-140.8-183.466667-140.8z"  horiz-adv-x="1024" />
      
      <glyph glyph-name="shijian" unicode="&#59040;" d="M507.733333 379.733333m-311.466666 0a311.466667 311.466667 0 1 1 622.933333 0 311.466667 311.466667 0 1 1-622.933333 0ZM507.733333 38.4c-187.733333 0-345.6 153.6-345.6 345.6 0 187.733333 153.6 341.333333 345.6 341.333333S853.333333 571.733333 853.333333 379.733333c-4.266667-187.733333-157.866667-341.333333-345.6-341.333333z m0 622.933333c-153.6 0-281.6-123.733333-281.6-281.6 0-153.6 123.733333-281.6 281.6-281.6s281.6 123.733333 281.6 281.6c-4.266667 153.6-128 281.6-281.6 281.6zM507.733333 349.866667c-17.066667 0-34.133333 12.8-34.133333 29.866666V563.2c0 17.066667 12.8 29.866667 29.866667 29.866667 17.066667 0 34.133333-12.8 34.133333-29.866667v-183.466667c0-17.066667-12.8-29.866667-29.866667-29.866666zM473.6 379.733333c0 17.066667 12.8 34.133333 29.866667 34.133334h153.6c17.066667 0 29.866667-12.8 29.866666-29.866667 0-17.066667-12.8-29.866667-29.866666-29.866667h-153.6c-12.8-4.266667-29.866667 8.533333-29.866667 25.6z"  horiz-adv-x="1024" />
      
      <glyph glyph-name="sousuo" unicode="&#59041;" d="M473.6 413.866667m-251.733333 0a251.733333 251.733333 0 1 1 503.466666 0 251.733333 251.733333 0 1 1-503.466666 0ZM473.6 128a285.866667 285.866667 0 1 0 0 571.733333 285.866667 285.866667 0 0 0 0-571.733333z m0 507.733333C354.133333 635.733333 256 533.333333 256 413.866667s98.133333-221.866667 221.866667-221.866667c119.466667 0 221.866667 98.133333 221.866666 221.866667S597.333333 635.733333 473.6 635.733333zM793.6 93.866667c-12.8-12.8-34.133333-12.8-46.933333 0L627.2 213.333333c-12.8 12.8-12.8 34.133333 0 46.933334 12.8 12.8 34.133333 12.8 46.933333 0l119.466667-119.466667c12.8-12.8 12.8-34.133333 0-46.933333z"  horiz-adv-x="1024" />
      
      <glyph glyph-name="xiazai" unicode="&#59042;" d="M844.8 29.866667H196.266667c-17.066667 0-29.866667 12.8-29.866667 34.133333 0 17.066667 12.8 29.866667 29.866667 29.866667h648.533333c17.066667 0 29.866667-12.8 29.866667-29.866667 0-21.333333-12.8-34.133333-29.866667-34.133333zM486.4 174.933333v554.666667c0 17.066667 12.8 29.866667 29.866667 29.866667h4.266666c17.066667 0 29.866667-12.8 29.866667-29.866667v-554.666667c0-17.066667-12.8-29.866667-29.866667-29.866666h-4.266666c-17.066667 0-29.866667 12.8-29.866667 29.866666zM503.466667 149.333333l-196.266667 102.4c-17.066667 8.533333-21.333333 25.6-12.8 42.666667s25.6 21.333333 42.666667 12.8l196.266666-102.4c17.066667-8.533333 21.333333-25.6 12.8-42.666667s-25.6-21.333333-42.666666-12.8zM533.333333 149.333333l196.266667 102.4c17.066667 8.533333 21.333333 25.6 12.8 42.666667s-25.6 21.333333-42.666667 12.8l-196.266666-102.4c-17.066667-8.533333-21.333333-25.6-12.8-42.666667s29.866667-21.333333 42.666666-12.8z"  horiz-adv-x="1024" />
      
      <glyph glyph-name="xiaoxi" unicode="&#59043;" d="M435.2 0c-81.066667 0-162.133333 8.533333-213.333333 64-59.733333 64-55.466667 187.733333-55.466667 281.6v29.866667c0 200.533333 162.133333 362.666667 362.666667 362.666666 204.8 0 371.2-166.4 371.2-371.2 0-200.533333-162.133333-362.666667-362.666667-362.666666h-51.2c-17.066667-4.266667-34.133333-4.266667-51.2-4.266667z m89.6 674.133333c-166.4 0-298.666667-136.533333-298.666667-298.666666v-29.866667c0-76.8 0-192 38.4-234.666667 42.666667-46.933333 132.266667-42.666667 213.333334-42.666666h51.2c166.4 0 298.666667 136.533333 298.666666 298.666666 8.533333 170.666667-132.266667 307.2-302.933333 307.2zM678.4 443.733333H554.666667c-17.066667 0-29.866667 12.8-29.866667 29.866667 0 17.066667 12.8 29.866667 29.866667 29.866667h123.733333c17.066667 0 34.133333-12.8 34.133333-29.866667-4.266667-17.066667-17.066667-29.866667-34.133333-29.866667zM678.4 302.933333h-187.733333c-17.066667 0-34.133333 12.8-34.133334 29.866667 0 17.066667 12.8 29.866667 34.133334 29.866667h187.733333c17.066667 0 34.133333-12.8 34.133333-29.866667-4.266667-12.8-17.066667-29.866667-34.133333-29.866667z"  horiz-adv-x="1024" />
      
      <glyph glyph-name="wenjianjia" unicode="&#59044;" d="M179.2 580.266667c-12.8 0-25.6-8.533333-34.133333-17.066667 8.533333 8.533333 17.066667 12.8 25.6 17.066667h8.533333zM187.733333 516.266667s4.266667 4.266667 0 0zM251.733333 93.866667H196.266667c-8.533333 0-12.8 4.266667-12.8 12.8v196.266666l-34.133334 98.133334v-294.4c0-25.6 21.333333-42.666667 42.666667-42.666667h81.066667c-8.533333 8.533333-17.066667 17.066667-21.333334 29.866667zM183.466667 512zM145.066667 563.2zM392.533333 584.533333l277.333334 89.6h4.266666c4.266667 0 8.533333-4.266667 8.533334-4.266666l25.6-85.333334h68.266666l-34.133333 102.4c-12.8 38.4-51.2 59.733333-89.6 46.933334l-469.333333-149.333334H392.533333zM183.466667 512c0 4.266667 4.266667 4.266667 0 0 4.266667 4.266667 4.266667 4.266667 0 0zM196.266667 520.533333c-4.266667 0-4.266667 0 0 0zM281.6 59.733333c8.533333-4.266667 21.333333-8.533333 34.133333-8.533333 8.533333 0 12.8 0 21.333334 4.266667l34.133333 8.533333H273.066667c4.266667-4.266667 8.533333-4.266667 8.533333-4.266667zM251.733333 93.866667c4.266667-12.8 12.8-25.6 25.6-34.133334h98.133334l98.133333 34.133334H251.733333zM827.733333 584.533333H183.466667l-12.8-4.266666c-8.533333-4.266667-17.066667-8.533333-25.6-17.066667l-12.8-12.8c-8.533333-12.8-12.8-25.6-12.8-42.666667v-396.8c0-42.666667 34.133333-76.8 76.8-76.8h635.733333c42.666667 0 76.8 34.133333 76.8 76.8V507.733333c-4.266667 42.666667-38.4 76.8-81.066667 76.8z m34.133334-341.333333c-4.266667-8.533333-12.8-17.066667-17.066667-21.333333v-110.933334c0-8.533333-4.266667-12.8-12.8-12.8H469.333333l-98.133333-34.133333-34.133333-8.533333c-8.533333-4.266667-12.8-4.266667-21.333334-4.266667-12.8 0-21.333333 4.266667-34.133333 8.533333-4.266667 0-4.266667 4.266667-8.533333 4.266667H196.266667c-25.6 0-42.666667 21.333333-42.666667 42.666667v294.4l34.133333-98.133334V507.733333c0 4.266667 0 4.266667 4.266667 4.266667l4.266667 4.266667h631.466666c8.533333 0 12.8-4.266667 12.8-12.8v-136.533334l21.333334-68.266666c8.533333-17.066667 8.533333-38.4 0-55.466667zM861.866667 243.2c8.533333 17.066667 8.533333 38.4 4.266666 55.466667l-21.333333 68.266666v-149.333333c4.266667 8.533333 12.8 17.066667 17.066667 25.6zM503.466667 153.6H281.6c-17.066667 0-29.866667 12.8-29.866667 29.866667 0 17.066667 12.8 29.866667 29.866667 29.866666h221.866667c17.066667 0 29.866667-12.8 29.866666-29.866666 4.266667-17.066667-8.533333-29.866667-29.866666-29.866667z"  horiz-adv-x="1024" />
      
      <glyph glyph-name="add" unicode="&#58980;" d="M853.333333 416H544V725.333333c0 17.066667-14.933333 32-32 32s-32-14.933333-32-32v-309.333333H170.666667c-17.066667 0-32-14.933333-32-32s14.933333-32 32-32h309.333333V42.666667c0-17.066667 14.933333-32 32-32s32 14.933333 32 32V352H853.333333c17.066667 0 32 14.933333 32 32s-14.933333 32-32 32z"  horiz-adv-x="1024" />
      
      <glyph glyph-name="add-circle" unicode="&#58981;" d="M512 821.333333C270.933333 821.333333 74.666667 625.066667 74.666667 384S270.933333-53.333333 512-53.333333 949.333333 142.933333 949.333333 384 753.066667 821.333333 512 821.333333z m0-810.666666c-204.8 0-373.333333 168.533333-373.333333 373.333333S307.2 757.333333 512 757.333333 885.333333 588.8 885.333333 384 716.8 10.666667 512 10.666667zM682.666667 416h-138.666667V554.666667c0 17.066667-14.933333 32-32 32s-32-14.933333-32-32v-138.666667H341.333333c-17.066667 0-32-14.933333-32-32s14.933333-32 32-32h138.666667V213.333333c0-17.066667 14.933333-32 32-32s32 14.933333 32 32v138.666667H682.666667c17.066667 0 32 14.933333 32 32s-14.933333 32-32 32z"  horiz-adv-x="1024" />
      
      <glyph glyph-name="arrow-up-circle" unicode="&#58982;" d="M512 821.333333C270.933333 821.333333 74.666667 625.066667 74.666667 384S270.933333-53.333333 512-53.333333 949.333333 142.933333 949.333333 384 753.066667 821.333333 512 821.333333z m0-810.666666c-204.8 0-373.333333 168.533333-373.333333 373.333333S307.2 757.333333 512 757.333333 885.333333 588.8 885.333333 384 716.8 10.666667 512 10.666667zM533.333333 588.8c-12.8 10.666667-32 10.666667-44.8 0l-181.333333-170.666667c-12.8-12.8-12.8-32-2.133333-44.8s32-12.8 44.8-2.133333l128 119.466667v-277.333334c0-17.066667 14.933333-32 32-32s32 14.933333 32 32V490.666667l128-119.466667c6.4-6.4 14.933333-8.533333 21.333333-8.533333 8.533333 0 17.066667 4.266667 23.466667 10.666666 12.8 12.8 10.666667 34.133333-2.133334 44.8l-179.2 170.666667z"  horiz-adv-x="1024" />
      
      <glyph glyph-name="arrow-right-circle" unicode="&#58983;" d="M512 821.333333C270.933333 821.333333 74.666667 625.066667 74.666667 384S270.933333-53.333333 512-53.333333 949.333333 142.933333 949.333333 384 753.066667 821.333333 512 821.333333z m0-810.666666c-204.8 0-373.333333 168.533333-373.333333 373.333333S307.2 757.333333 512 757.333333 885.333333 588.8 885.333333 384 716.8 10.666667 512 10.666667zM546.133333 586.666667c-12.8 12.8-32 12.8-44.8 2.133333-12.8-12.8-12.8-32-2.133333-44.8l119.466667-128H341.333333c-17.066667 0-32-14.933333-32-32s14.933333-32 32-32h277.333334l-119.466667-128c-12.8-12.8-10.666667-34.133333 2.133333-44.8 6.4-6.4 14.933333-8.533333 21.333334-8.533333 8.533333 0 17.066667 4.266667 23.466666 10.666666l170.666667 181.333334c10.666667 12.8 10.666667 32 0 44.8l-170.666667 179.2z"  horiz-adv-x="1024" />
      
      <glyph glyph-name="arrow-down" unicode="&#58984;" d="M512 181.333333c-8.533333 0-17.066667 2.133333-23.466667 8.533334l-341.333333 341.333333c-12.8 12.8-12.8 32 0 44.8 12.8 12.8 32 12.8 44.8 0l320-317.866667 317.866667 320c12.8 12.8 32 12.8 44.8 0 12.8-12.8 12.8-32 0-44.8L533.333333 192c-4.266667-8.533333-12.8-10.666667-21.333333-10.666667z"  horiz-adv-x="1024" />
      
      <glyph glyph-name="ashbin" unicode="&#58985;" d="M874.666667 654.933333h-202.666667V725.333333c0 40.533333-34.133333 74.666667-74.666667 74.666667h-170.666666c-40.533333 0-74.666667-34.133333-74.666667-74.666667v-70.4H149.333333c-17.066667 0-32-14.933333-32-32s14.933333-32 32-32h53.333334V42.666667c0-40.533333 34.133333-74.666667 74.666666-74.666667h469.333334c40.533333 0 74.666667 34.133333 74.666666 74.666667V590.933333H874.666667c17.066667 0 32 14.933333 32 32s-14.933333 32-32 32zM416 725.333333c0 6.4 4.266667 10.666667 10.666667 10.666667h170.666666c6.4 0 10.666667-4.266667 10.666667-10.666667v-70.4h-192V725.333333z m341.333333-682.666666c0-6.4-4.266667-10.666667-10.666666-10.666667H277.333333c-6.4 0-10.666667 4.266667-10.666666 10.666667V586.666667h490.666666V42.666667zM426.666667 160c17.066667 0 32 14.933333 32 32V405.333333c0 17.066667-14.933333 32-32 32s-32-14.933333-32-32v-213.333333c0-17.066667 14.933333-32 32-32zM597.333333 160c17.066667 0 32 14.933333 32 32V405.333333c0 17.066667-14.933333 32-32 32s-32-14.933333-32-32v-213.333333c0-17.066667 14.933333-32 32-32z"  horiz-adv-x="1024" />
      
      <glyph glyph-name="bottom" unicode="&#58986;" d="M896 32H128c-17.066667 0-32-14.933333-32-32s14.933333-32 32-32h768c17.066667 0 32 14.933333 32 32s-14.933333 32-32 32zM488.533333 168.533333c6.4-6.4 14.933333-8.533333 23.466667-8.533333s17.066667 2.133333 23.466667 8.533333l213.333333 213.333334c12.8 12.8 12.8 32 0 44.8-12.8 12.8-32 12.8-44.8 0l-157.866667-157.866667V725.333333c0 17.066667-14.933333 32-32 32s-34.133333-14.933333-34.133333-32v-456.533333L322.133333 426.666667c-12.8 12.8-32 12.8-44.8 0-12.8-12.8-12.8-32 0-44.8l211.2-213.333334z"  horiz-adv-x="1024" />
      
      <glyph glyph-name="bad" unicode="&#58987;" d="M904.533333 373.333333L853.333333 710.4c-8.533333 51.2-55.466667 89.6-106.666666 89.6H204.8c-59.733333 0-108.8-46.933333-108.8-106.666667v-258.133333c0-57.6 49.066667-106.666667 108.8-106.666667h91.733333l125.866667-281.6c2.133333-2.133333 2.133333-4.266667 4.266667-6.4 14.933333-23.466667 38.4-36.266667 64-36.266666 12.8 0 25.6 4.266667 38.4 10.666666 57.6 34.133333 87.466667 72.533333 87.466666 117.333334v117.333333h183.466667c32 0 59.733333 12.8 81.066667 36.266667 19.2 25.6 29.866667 55.466667 23.466666 87.466666z m-616.533333 21.333334H204.8c-25.6 0-44.8 19.2-44.8 42.666666v256c0 23.466667 19.2 42.666667 44.8 42.666667h83.2v-341.333333zM832 328.533333c-8.533333-8.533333-21.333333-14.933333-34.133333-14.933333h-213.333334c-17.066667 0-32-14.933333-32-32v-149.333333c0-25.6-29.866667-49.066667-55.466666-64-4.266667-2.133333-10.666667-2.133333-14.933334 4.266666L352 362.666667V736H746.666667c21.333333 0 40.533333-14.933333 42.666666-36.266667L842.666667 362.666667c2.133333-10.666667-2.133333-23.466667-10.666667-34.133334z"  horiz-adv-x="1024" />
      
      <glyph glyph-name="arrow-double-left" unicode="&#58988;" d="M842.666667 32c-8.533333 0-14.933333 2.133333-21.333334 8.533333l-341.333333 309.333334c-6.4 6.4-10.666667 14.933333-10.666667 23.466666 0 8.533333 4.266667 17.066667 10.666667 23.466667l341.333333 309.333333c12.8 12.8 34.133333 10.666667 44.8-2.133333 12.8-12.8 10.666667-34.133333-2.133333-44.8L548.266667 373.333333l315.733333-285.866666c12.8-10.666667 14.933333-32 2.133333-44.8-6.4-6.4-14.933333-10.666667-23.466666-10.666667zM512 32c-8.533333 0-14.933333 2.133333-21.333333 8.533333L149.333333 349.866667c-6.4 6.4-10.666667 14.933333-10.666666 23.466666 0 8.533333 4.266667 17.066667 10.666666 23.466667L490.666667 706.133333c12.8 12.8 34.133333 10.666667 44.8-2.133333 12.8-12.8 10.666667-34.133333-2.133334-44.8L217.6 373.333333 533.333333 87.466667c12.8-12.8 14.933333-32 2.133334-44.8-6.4-6.4-14.933333-10.666667-23.466667-10.666667z"  horiz-adv-x="1024" />
      
    </font>
</defs>
</svg>
